<svg width="1920" height="390" viewBox="0 0 1920 390" fill="none" xmlns="http://www.w3.org/2000/svg">
<path d="M717.591 355.688H960.478" stroke="#3D9FBB" stroke-width="67.8198"/>
<path d="M856.103 351.233C856.103 352.586 855.7 353.711 854.895 354.606C854.099 355.492 852.949 356.089 851.447 356.397V356.517C853.079 356.716 854.342 357.263 855.238 358.158C856.143 359.044 856.596 360.228 856.596 361.711C856.596 363.721 855.949 365.303 854.656 366.457C853.372 367.611 851.621 368.188 849.402 368.188C847.054 368.188 845.223 367.845 843.91 367.158V363.606C845.382 364.422 846.949 364.83 848.611 364.83C851.218 364.83 852.521 363.691 852.521 361.412C852.521 360.377 852.143 359.591 851.387 359.054C850.641 358.507 849.531 358.233 848.059 358.233H846.596V354.905H847.91C849.352 354.905 850.417 354.656 851.104 354.159C851.79 353.651 852.133 352.87 852.133 351.815C852.133 350.97 851.905 350.323 851.447 349.875C850.989 349.417 850.327 349.188 849.462 349.188C848.138 349.188 846.885 349.726 845.701 350.8L843.775 348.084C844.76 347.238 845.76 346.641 846.775 346.293C847.79 345.935 848.919 345.756 850.163 345.756C851.964 345.756 853.402 346.258 854.477 347.263C855.561 348.258 856.103 349.581 856.103 351.233Z" fill="white"/>
<path d="M869.563 367.89L868.309 362.382H862.623L861.369 367.89H857.309L862.712 345.98H868.22L873.637 367.89H869.563ZM867.548 358.785L866.384 353.711C866.314 353.402 866.155 352.631 865.906 351.397C865.667 350.154 865.523 349.323 865.473 348.905C865.344 349.761 865.18 350.706 864.981 351.741C864.782 352.766 864.264 355.114 863.429 358.785H867.548Z" fill="white"/>
<path d="M889.667 367.89H885.637V349.636H880.249V367.89H876.19V346.069H889.667V367.89Z" fill="white"/>
<path d="M894.993 368.188C893.948 368.188 893.072 368.049 892.366 367.77V364.158C893.092 364.447 893.843 364.591 894.62 364.591C895.814 364.591 896.734 363.482 897.381 361.263L891.784 346.069H896.037L898.814 354.591C899.042 355.377 899.187 356.049 899.246 356.606H899.366L899.575 355.591L899.799 354.591L902.172 346.069H906.276L901.411 361.502C900.634 363.939 899.744 365.666 898.739 366.681C897.744 367.686 896.495 368.188 894.993 368.188Z" fill="white"/>
<path d="M916.633 349.308C915.469 349.308 914.549 349.989 913.872 351.353C913.206 352.716 912.872 354.611 912.872 357.039C912.872 362.094 914.191 364.621 916.827 364.621C917.982 364.621 919.191 364.253 920.454 363.517V367.128C919.39 367.835 918.026 368.188 916.365 368.188C913.907 368.188 912.017 367.213 910.693 365.263C909.38 363.303 908.723 360.551 908.723 357.009C908.723 353.467 909.4 350.706 910.753 348.726C912.116 346.746 914.007 345.756 916.424 345.756C917.22 345.756 917.982 345.865 918.708 346.084C919.444 346.303 920.23 346.686 921.066 347.233L919.723 350.532C919.275 350.223 918.798 349.945 918.29 349.696C917.783 349.437 917.23 349.308 916.633 349.308Z" fill="white"/>
<path d="M937.401 367.89H932.848L927.252 356.83V367.89H923.222V346.069H927.252V356.636L932.938 346.069H937.281L931.296 356.576L937.401 367.89Z" fill="white"/>
<path d="M947.504 361.412L954.817 357.099L947.504 352.815V349.457L958.026 355.935V358.263L947.504 364.77V361.412Z" fill="white"/>
<path d="M717.83 355.688C628.973 355.688 556.941 283.656 556.941 194.799C556.941 174.587 560.668 155.245 567.473 137.424" stroke="#05466C" stroke-width="67.8198"/>
<path d="M544.8 186.753L545.135 182.737L563.325 184.257L563.774 178.887L545.584 177.368L545.922 173.322L567.666 175.139L566.544 188.569L544.8 186.753Z" fill="white"/>
<path d="M559.962 203.691C557.644 203.727 555.854 203.168 554.592 202.013C553.34 200.868 552.698 199.191 552.663 196.982L552.648 195.968L544.738 196.09L544.676 192.031L566.494 191.694L566.579 197.23C566.645 201.468 564.439 203.622 559.962 203.691ZM556.17 195.913L556.182 196.689C556.197 197.684 556.482 198.421 557.037 198.9C557.592 199.379 558.491 199.609 559.734 199.59C560.878 199.572 561.721 199.335 562.261 198.879C562.811 198.423 563.079 197.727 563.065 196.792L563.049 195.807L556.17 195.913Z" fill="white"/>
<path d="M557.748 221.862C554.162 222.292 551.325 221.951 549.237 220.839C547.15 219.727 545.956 217.921 545.656 215.422C545.354 212.912 546.082 210.871 547.837 209.297C549.602 207.722 552.292 206.718 555.908 206.284C559.494 205.853 562.321 206.195 564.389 207.31C566.467 208.424 567.658 210.245 567.961 212.774C568.262 215.273 567.528 217.306 565.762 218.871C564.006 220.434 561.334 221.431 557.748 221.862ZM556.373 210.407C553.903 210.703 552.059 211.241 550.839 212.018C549.62 212.796 549.082 213.788 549.227 214.993C549.519 217.423 552.194 218.335 557.252 217.727C562.31 217.12 564.694 215.611 564.405 213.201C564.258 211.976 563.5 211.13 562.131 210.663C560.772 210.195 558.853 210.109 556.373 210.407Z" fill="white"/>
<path d="M569.072 223.067L570.323 228.491C570.833 230.702 570.772 232.411 570.142 233.618C569.521 234.823 568.275 235.642 566.404 236.073C565.173 236.357 564.079 236.328 563.122 235.987C562.175 235.644 561.508 235.032 561.121 234.151L560.975 234.185C560.952 235.456 560.59 236.454 559.889 237.177C559.187 237.9 558.153 238.42 556.786 238.735C554.857 239.18 553.225 239.01 551.89 238.225C550.567 237.448 549.699 236.162 549.285 234.369L547.81 227.969L569.072 223.067ZM561.379 228.762L561.798 230.579C561.99 231.413 562.349 231.948 562.873 232.185C563.397 232.421 564.101 232.438 564.983 232.235C565.865 232.031 566.451 231.692 566.739 231.217C567.038 230.74 567.091 230.084 566.899 229.25L566.513 227.578L561.379 228.762ZM558.078 229.523L552.129 230.894L552.589 232.887C552.779 233.711 553.172 234.264 553.768 234.545C554.366 234.836 555.193 234.86 556.25 234.616C558.15 234.178 558.908 233.125 558.524 231.457L558.078 229.523Z" fill="white"/>
<path d="M554.914 253.609L551.842 244.266L572.572 237.452L575.643 246.796L572.311 247.891L570.507 242.404L565.573 244.026L567.246 249.116L563.9 250.216L562.227 245.125L556.484 247.013L558.288 252.5L554.914 253.609Z" fill="white"/>
<path d="M575.252 263.239C573.124 264.158 571.256 264.325 569.648 263.74C568.054 263.161 566.819 261.857 565.944 259.829L565.541 258.897L558.279 262.033L556.67 258.306L576.703 249.656L578.898 254.739C580.578 258.631 579.363 261.464 575.252 263.239ZM568.775 257.501L569.083 258.213C569.477 259.127 570.022 259.699 570.718 259.93C571.414 260.16 572.332 260.029 573.474 259.536C574.525 259.082 575.212 258.542 575.537 257.914C575.871 257.282 575.853 256.536 575.482 255.678L575.092 254.773L568.775 257.501Z" fill="white"/>
<path d="M570.026 285.275L567.827 281.289L574.808 271.047L565.124 276.389L563.177 272.86L582.284 262.321L584.23 265.849L574.978 270.953L586.977 270.828L589.075 274.631L576.983 274.466L570.026 285.275Z" fill="white"/>
<path d="M577.759 296.579L581.567 292.408L578.324 287.737L573.085 289.848L570.77 286.514L591.848 278.455L594.989 282.979L580.083 299.926L577.759 296.579ZM584.088 289.731L587.592 285.88C587.805 285.647 588.348 285.077 589.22 284.169C590.105 283.263 590.705 282.671 591.02 282.391C590.243 282.773 589.373 283.178 588.41 283.604C587.454 284.025 585.231 284.94 581.738 286.347L584.088 289.731Z" fill="white"/>
<path d="M592.124 304.287L600.263 306.706L598.42 298.433L600.879 296.146L603.301 308.263L601.596 309.848L589.665 306.574L592.124 304.287Z" fill="white"/>
<path d="M0 355.688H717.909C792.761 355.688 855.652 304.486 873.459 235.2" stroke="#52ABB3" stroke-width="67.8198"/>
<path d="M700.647 367.889H696.617V349.636H691.229V367.889H687.169V346.069H700.647V367.889Z" fill="white"/>
<path d="M719.174 367.889H715.115V349.636H711.846C711.398 354.671 710.95 358.83 710.503 362.113C710.204 364.213 709.662 365.75 708.876 366.725C708.1 367.7 707.06 368.188 705.757 368.188C704.951 368.188 704.289 368.078 703.771 367.86V364.501C704.07 364.621 704.438 364.681 704.876 364.681C705.433 364.681 705.856 364.243 706.145 363.367C706.443 362.491 706.776 360.526 707.145 357.472C707.523 354.417 707.916 350.616 708.324 346.069H719.174V367.889Z" fill="white"/>
<path d="M734.449 367.137L732.787 361.739L727.117 362.164L726.278 367.75L722.23 368.054L725.979 345.801L731.471 345.389L738.513 366.832L734.449 367.137ZM731.759 358.209L730.219 353.236C730.126 352.933 729.91 352.176 729.569 350.965C729.238 349.742 729.032 348.925 728.951 348.511C728.886 349.374 728.793 350.329 728.672 351.376C728.55 352.413 728.21 354.793 727.651 358.517L731.759 358.209Z" fill="white"/>
<path d="M755.407 363.911L751.414 364.645L749.684 355.236L744.415 356.205L746.144 365.614L742.152 366.348L738.206 344.887L742.199 344.153L743.767 352.682L749.037 351.713L747.469 343.184L751.461 342.45L755.407 363.911Z" fill="white"/>
<path d="M755.112 341.658L758.705 340.544L762.253 351.992C762.621 353.18 762.894 354.382 763.073 355.597L763.23 355.548L764.949 338.609L769.71 337.133L776.17 357.975L772.606 359.08L769.067 347.661C768.631 346.254 768.357 344.985 768.246 343.853L768.061 343.91L766.362 361.015L761.572 362.5L755.112 341.658Z" fill="white"/>
<path d="M786.342 337.341C787.263 339.468 787.431 341.336 786.847 342.944C786.269 344.538 784.966 345.774 782.938 346.651L782.007 347.054L785.148 354.314L781.422 355.926L772.758 335.899L777.84 333.701C781.731 332.018 784.565 333.231 786.342 337.341ZM780.608 343.821L781.321 343.513C782.234 343.118 782.806 342.573 783.036 341.877C783.266 341.181 783.134 340.262 782.641 339.121C782.186 338.071 781.645 337.383 781.017 337.059C780.385 336.725 779.639 336.744 778.781 337.115L777.877 337.507L780.608 343.821Z" fill="white"/>
<path d="M803.568 332.654C805.337 335.803 806.106 338.555 805.876 340.909C805.646 343.264 804.433 345.057 802.238 346.289C800.034 347.527 797.87 347.635 795.745 346.614C793.615 345.585 791.659 343.482 789.876 340.307C788.108 337.157 787.343 334.414 787.583 332.077C787.818 329.732 789.046 327.935 791.267 326.688C793.462 325.456 795.62 325.357 797.742 326.391C799.858 327.417 801.8 329.504 803.568 332.654ZM793.508 338.302C794.726 340.471 795.927 341.97 797.112 342.8C798.297 343.629 799.418 343.747 800.477 343.153C802.611 341.955 802.431 339.134 799.937 334.692C797.443 330.25 795.138 328.623 793.021 329.812C791.945 330.416 791.453 331.439 791.544 332.883C791.631 334.318 792.286 336.124 793.508 338.302Z" fill="white"/>
<path d="M800.056 321.951L804.597 318.73C806.448 317.418 808.051 316.823 809.407 316.947C810.758 317.062 811.989 317.903 813.1 319.47C813.831 320.501 814.221 321.523 814.269 322.538C814.312 323.544 814 324.394 813.333 325.087L813.419 325.209C814.604 324.746 815.664 324.702 816.6 325.075C817.535 325.448 818.409 326.207 819.221 327.352C820.366 328.967 820.83 330.541 820.612 332.074C820.396 333.593 819.538 334.885 818.037 335.95L812.68 339.749L800.056 321.951ZM808.25 326.899L809.772 325.819C810.47 325.324 810.828 324.789 810.847 324.215C810.867 323.64 810.614 322.983 810.091 322.245C809.567 321.506 809.03 321.094 808.481 321.007C807.926 320.913 807.3 321.113 806.602 321.608L805.202 322.601L808.25 326.899ZM810.21 329.662L813.741 334.641L815.409 333.458C816.099 332.969 816.461 332.395 816.494 331.737C816.536 331.073 816.243 330.299 815.615 329.415C814.487 327.824 813.225 327.524 811.829 328.514L810.21 329.662Z" fill="white"/>
<path d="M834.449 322.759L829.881 319.438L825.599 323.181L828.281 328.152L825.224 330.824L814.871 310.773L819.017 307.148L837.517 320.077L834.449 322.759ZM826.94 317.231L822.723 314.177C822.468 313.991 821.841 313.515 820.841 312.75C819.843 311.971 819.187 311.44 818.875 311.158C819.341 311.888 819.839 312.707 820.37 313.617C820.895 314.52 822.051 316.628 823.839 319.943L826.94 317.231Z" fill="white"/>
<path d="M849.461 307.386L846.709 310.37L839.676 303.884L836.044 307.822L843.076 314.309L840.324 317.293L824.284 302.499L827.036 299.515L833.411 305.394L837.043 301.455L830.669 295.576L833.422 292.592L849.461 307.386Z" fill="white"/>
<path d="M835.232 290.542L837.452 287.506L847.126 294.58C848.131 295.314 849.067 296.115 849.935 296.984L850.032 296.852L841.31 282.229L844.252 278.205L861.867 291.083L859.665 294.095L850.014 287.039C848.825 286.17 847.848 285.315 847.084 284.472L846.969 284.629L855.806 299.373L852.847 303.421L835.232 290.542Z" fill="white"/>
<path d="M869.779 277.9L864.813 286.39L845.978 275.374L850.943 266.883L853.971 268.654L851.055 273.64L855.538 276.262L858.243 271.637L861.284 273.415L858.579 278.041L863.796 281.092L866.712 276.106L869.779 277.9Z" fill="white"/>
<path d="M869.617 263.815L868.447 255.405L861.681 260.509L858.581 259.218L868.606 251.995L870.756 252.89L872.717 265.106L869.617 263.815Z" fill="white"/>
<path d="M831.862 81.3009C860.821 110.395 878.719 150.507 878.719 194.799C878.719 208.666 876.964 222.124 873.665 234.961" stroke="#D8AD59" stroke-width="67.8198"/>
<path d="M844.594 111.091L843.802 98.7443L845.7 97.3954L857.076 102.219L854.339 104.165L846.636 100.722L847.332 109.145L844.594 111.091Z" fill="white"/>
<path d="M848.765 137.963L846.983 134.449L852.547 131.627L848.118 122.895L842.554 125.717L840.771 122.203L849.53 117.76L850.11 118.905C855.892 118.271 861.908 116.692 868.159 114.169L872.669 123.06L856.403 131.311L857.523 133.52L848.765 137.963ZM854.566 127.69L867.651 121.053L866.53 118.844C864.261 119.716 861.838 120.493 859.261 121.175C856.698 121.862 854.284 122.361 852.021 122.672L854.566 127.69Z" fill="white"/>
<path d="M875.287 128.78L876.578 132.312L865.321 136.427C864.153 136.854 862.966 137.187 861.761 137.426L861.817 137.58L878.822 138.452L880.533 143.135L860.038 150.625L858.757 147.12L869.986 143.017C871.369 142.511 872.623 142.174 873.749 142.007L873.682 141.825L856.513 140.98L854.792 136.27L875.287 128.78Z" fill="white"/>
<path d="M879.786 160.835C878.472 161.158 877.284 161.035 876.222 160.467C875.172 159.905 874.318 158.932 873.659 157.546L873.543 157.575C873.74 159.207 873.51 160.565 872.854 161.648C872.211 162.739 871.169 163.461 869.729 163.815C867.777 164.295 866.087 164.045 864.657 163.064C863.23 162.094 862.251 160.531 861.721 158.376C861.161 156.096 861.057 154.236 861.41 152.797L864.859 151.948C864.419 153.573 864.397 155.193 864.793 156.806C865.416 159.338 866.833 160.331 869.046 159.787C870.051 159.54 870.724 158.985 871.065 158.123C871.418 157.267 871.419 156.125 871.068 154.695L870.718 153.274L873.95 152.479L874.264 153.755C874.608 155.156 875.104 156.13 875.751 156.678C876.408 157.224 877.248 157.371 878.273 157.119C879.094 156.917 879.667 156.54 879.993 155.989C880.328 155.435 880.392 154.738 880.186 153.897C879.87 152.612 879.048 151.523 877.722 150.63L879.9 148.112C880.957 148.866 881.775 149.695 882.356 150.597C882.946 151.497 883.39 152.551 883.687 153.759C884.117 155.508 883.972 157.024 883.253 158.307C882.545 159.598 881.39 160.441 879.786 160.835Z" fill="white"/>
<path d="M865.522 177.069L870.793 175.038L869.977 169.41L864.347 168.96L863.764 164.942L886.223 167.145L887.013 172.596L866.107 181.101L865.522 177.069ZM874.243 173.769L879.098 171.888C879.394 171.775 880.134 171.507 881.319 171.084C882.516 170.669 883.317 170.407 883.724 170.298C882.858 170.292 881.899 170.266 880.847 170.217C879.804 170.167 877.406 169.992 873.652 169.692L874.243 173.769Z" fill="white"/>
<path d="M888.013 181.584L888.129 185.343L876.149 185.712C874.906 185.75 873.675 185.694 872.456 185.542L872.461 185.706L888.33 191.877L888.483 196.86L866.673 197.531L866.558 193.802L878.507 193.434C879.979 193.389 881.276 193.463 882.397 193.658L882.391 193.464L866.357 187.268L866.203 182.255L888.013 181.584ZM894.994 194.464C893.318 194.317 892.077 193.807 891.274 192.936C890.471 192.075 890.043 190.779 889.99 189.049C889.938 187.358 890.277 186.078 891.006 185.21C891.746 184.341 892.964 183.8 894.66 183.589L894.761 186.886C893.77 187.026 893.105 187.255 892.767 187.574C892.428 187.903 892.269 188.401 892.29 189.067C892.31 189.724 892.524 190.205 892.932 190.511C893.34 190.827 893.993 191.026 894.891 191.108L894.994 194.464Z" fill="white"/>
<path d="M865.408 214.215L865.754 210.171L875.286 210.987L875.744 205.649L866.211 204.832L866.558 200.787L888.299 202.65L887.952 206.695L879.313 205.955L878.855 211.293L887.495 212.033L887.148 216.078L865.408 214.215Z" fill="white"/>
<path d="M633.441 57.7917C657.974 42.648 686.882 33.9099 717.83 33.9099C762.394 33.9099 802.726 52.0285 831.863 81.3009" stroke="#D17922" stroke-width="67.8198"/>
<path d="M660.501 54.0984L648.239 52.4511L647.289 50.3254L654.252 40.1181L655.623 43.184L650.735 50.0606L659.131 51.0325L660.501 54.0984Z" fill="white"/>
<path d="M678.332 35.6738C678.976 37.9009 678.907 39.7749 678.125 41.296C677.35 42.8048 675.901 43.8661 673.779 44.4801L672.804 44.7622L675.003 52.3608L671.103 53.4892L665.039 32.5284L670.358 30.9894C674.429 29.8112 677.087 31.3727 678.332 35.6738ZM671.825 41.3786L672.571 41.1629C673.527 40.8864 674.163 40.4175 674.479 39.7563C674.795 39.0951 674.781 38.1671 674.435 36.9723C674.117 35.8732 673.667 35.123 673.084 34.7217C672.499 34.3109 671.758 34.2355 670.859 34.4955L669.913 34.7693L671.825 41.3786Z" fill="white"/>
<path d="M694.18 47.9323L691.942 42.7463L686.351 43.7842L686.124 49.4279L682.133 50.169L683.445 27.6408L688.86 26.6355L698.186 47.1885L694.18 47.9323ZM690.537 39.3487L688.467 34.5719C688.342 34.2813 688.044 33.5522 687.575 32.3845C687.113 31.2053 686.819 30.4147 686.694 30.0129C686.723 30.8779 686.734 31.8372 686.728 32.891C686.719 33.9349 686.639 36.3381 686.487 40.1006L690.537 39.3487Z" fill="white"/>
<path d="M709.471 29.5611C709.586 30.9094 709.279 32.0638 708.552 33.0243C707.834 33.9739 706.739 34.6659 705.268 35.1003L705.278 35.2193C706.921 35.2796 708.226 35.7181 709.194 36.5347C710.171 37.3406 710.723 38.4821 710.848 39.9594C711.018 41.9621 710.507 43.5932 709.316 44.8526C708.134 46.1112 706.438 46.8342 704.227 47.0218C701.887 47.2203 700.034 47.033 698.667 46.4599L698.367 42.9204C699.903 43.6089 701.499 43.883 703.155 43.7425C705.753 43.5222 706.955 42.2768 706.763 40.0064C706.675 38.9753 706.232 38.224 705.433 37.7525C704.643 37.2703 703.515 37.0914 702.047 37.2159L700.59 37.3395L700.309 34.0231L701.617 33.9121C703.055 33.7902 704.095 33.4523 704.737 32.8986C705.378 32.3349 705.654 31.5276 705.565 30.4766C705.493 29.6339 705.211 29.0088 704.717 28.6014C704.222 28.184 703.543 28.0119 702.681 28.085C701.362 28.1969 700.158 28.8383 699.069 30.0091L696.921 27.4652C697.831 26.5392 698.777 25.8598 699.759 25.427C700.74 24.9843 701.85 24.7104 703.09 24.6053C704.884 24.453 706.359 24.8322 707.515 25.7427C708.68 26.6425 709.332 27.9153 709.471 29.5611Z" fill="white"/>
<path d="M724.912 31.0453C724.898 33.3636 724.301 35.1413 723.12 36.3782C721.948 37.6052 720.258 38.2123 718.049 38.1995L717.034 38.1936L716.989 46.1038L712.929 46.0802L713.056 24.26L718.593 24.2922C722.831 24.3168 724.938 26.5679 724.912 31.0453ZM717.055 34.6713L717.831 34.6758C718.826 34.6816 719.569 34.4123 720.06 33.8679C720.55 33.3235 720.799 32.4294 720.807 31.1857C720.813 30.0414 720.594 29.1944 720.15 28.6445C719.705 28.0847 719.015 27.8021 718.08 27.7967L717.095 27.791L717.055 34.6713Z" fill="white"/>
<path d="M737.352 47.33L736.679 41.722L731.024 41.1293L729.203 46.4761L725.165 46.0529L732.822 24.8253L738.3 25.3993L741.404 47.7547L737.352 47.33ZM736.297 38.0653L735.668 32.8971C735.631 32.583 735.553 31.7995 735.434 30.5465C735.326 29.2846 735.269 28.4433 735.264 28.0224C735.046 28.86 734.784 29.783 734.478 30.7914C734.173 31.79 733.414 34.0715 732.2 37.636L736.297 38.0653Z" fill="white"/>
<path d="M755.19 43.5625C754.746 45.7263 753.847 47.2888 752.491 48.2498C751.148 49.2031 749.448 49.4686 747.391 49.0465L741.996 47.9391L746.384 26.5642L756.53 28.647L755.819 32.112L749.649 30.8455L748.647 35.7287L749.904 35.9868C752.068 36.431 753.594 37.2875 754.481 38.5565C755.378 39.8275 755.615 41.4962 755.19 43.5625ZM746.681 45.305L747.909 45.5571C749.635 45.9112 750.716 45.021 751.154 42.8864C751.365 41.863 751.296 41.0821 750.95 40.5437C750.615 39.9976 749.931 39.6185 748.898 39.4064L747.933 39.2083L746.681 45.305Z" fill="white"/>
<path d="M773.469 44.9518C772.37 48.3925 770.881 50.8312 769.002 52.2679C767.122 53.7046 764.984 54.04 762.586 53.2743C760.178 52.5055 758.623 50.9959 757.921 48.7454C757.223 46.4854 757.427 43.6209 758.535 40.1517C759.633 36.711 761.119 34.2818 762.993 32.8641C764.869 31.4368 767.02 31.1107 769.447 31.8855C771.845 32.6512 773.389 34.1626 774.078 36.4195C774.77 38.667 774.567 41.511 773.469 44.9518ZM762.478 41.4423C761.722 43.8119 761.444 45.713 761.644 47.1453C761.845 48.5777 762.523 49.4785 763.68 49.8478C766.012 50.5923 767.952 48.5381 769.502 43.6851C771.052 38.8321 770.67 36.0363 768.357 35.2978C767.182 34.9225 766.097 35.2603 765.104 36.3113C764.113 37.3529 763.238 39.0632 762.478 41.4423Z" fill="white"/>
<path d="M778.881 59.1665L775.172 57.5517L782.46 40.8162L778.629 39.1477L780.053 35.8772L791.424 40.8291L790 44.0996L786.168 42.4311L778.881 59.1665Z" fill="white"/>
<path d="M796.109 68.1172L792.118 65.9272L792.532 53.539L787.212 63.2346L783.679 61.2959L794.177 42.1665L797.709 44.1052L792.626 53.3689L802.694 46.8408L806.502 48.9303L796.2 55.2625L796.109 68.1172Z" fill="white"/>
<path d="M805.41 74.5686L807.511 69.3259L802.834 66.0912L798.67 69.9076L795.332 67.5983L812.239 52.6518L816.768 55.7846L808.761 76.8864L805.41 74.5686ZM808.931 65.9346L810.86 61.0988C810.979 60.8055 811.286 60.0808 811.784 58.9245C812.295 57.7658 812.649 57.0004 812.845 56.6284C812.252 57.2586 811.58 57.9426 810.827 58.6805C810.081 59.4102 808.319 61.0471 805.543 63.5914L808.931 65.9346Z" fill="white"/>
<path d="M562.893 151.29C573.91 111.977 599.487 78.7498 633.441 57.7916" stroke="#BA3B46" stroke-width="67.8198"/>
<path d="M580.882 129.007L570.688 136.017L568.557 135.079L566.866 122.839L569.94 124.192L570.933 132.57L577.808 127.654L580.882 129.007Z" fill="white"/>
<path d="M591.665 116.058L589.562 119.513L573.968 110.025L571.796 113.596L568.749 111.742L575.195 101.146L578.243 103L576.071 106.57L591.665 116.058Z" fill="white"/>
<path d="M600.484 103.341L594.693 111.29L577.056 98.4423L582.847 90.4924L585.682 92.5576L582.281 97.2262L586.479 100.284L589.634 95.9536L592.481 98.0276L589.326 102.358L594.212 105.918L597.613 101.249L600.484 103.341Z" fill="white"/>
<path d="M592.799 83.6661C592.035 84.5447 591.945 85.6865 592.53 87.0915C593.122 88.4889 594.333 89.9841 596.166 91.5771C599.98 94.8934 602.752 95.5567 604.482 93.5668C605.24 92.6957 605.755 91.5419 606.028 90.1051L608.754 92.4749C608.589 93.7419 607.961 95.0024 606.871 96.2564C605.258 98.1111 603.282 98.898 600.942 98.6172C598.601 98.3223 596.094 97.0128 593.421 94.6887C590.747 92.3646 589.108 90.0424 588.501 87.7221C587.901 85.3942 588.395 83.3179 589.981 81.4932C590.503 80.8925 591.085 80.3899 591.727 79.9853C592.375 79.5733 593.18 79.2314 594.141 78.9597L595.749 82.1376C595.223 82.2731 594.699 82.4507 594.179 82.6705C593.65 82.8837 593.19 83.2156 592.799 83.6661Z" fill="white"/>
<path d="M615.742 86.6805L612.836 89.4942L600.138 76.3811L597.136 79.2882L594.655 76.7256L603.565 68.0978L606.046 70.6603L603.044 73.5674L615.742 86.6805Z" fill="white"/>
<path d="M1177 356.07H1920" stroke="#3D9FBB" stroke-width="67.8198"/>
<path d="M1314.92 351.233C1314.92 352.586 1314.52 353.711 1313.71 354.606C1312.91 355.492 1311.76 356.089 1310.26 356.397V356.517C1311.89 356.716 1313.16 357.263 1314.05 358.158C1314.96 359.044 1315.41 360.228 1315.41 361.711C1315.41 363.721 1314.76 365.303 1313.47 366.457C1312.19 367.611 1310.44 368.188 1308.22 368.188C1305.87 368.188 1304.04 367.845 1302.72 367.158V363.606C1304.2 364.422 1305.76 364.83 1307.43 364.83C1310.03 364.83 1311.34 363.691 1311.34 361.412C1311.34 360.377 1310.96 359.591 1310.2 359.054C1309.46 358.507 1308.35 358.233 1306.87 358.233H1305.41V354.905H1306.72C1308.17 354.905 1309.23 354.656 1309.92 354.159C1310.6 353.651 1310.95 352.87 1310.95 351.815C1310.95 350.97 1310.72 350.323 1310.26 349.875C1309.8 349.417 1309.14 349.188 1308.28 349.188C1306.95 349.188 1305.7 349.726 1304.52 350.8L1302.59 348.084C1303.57 347.238 1304.57 346.641 1305.59 346.293C1306.6 345.935 1307.73 345.756 1308.98 345.756C1310.78 345.756 1312.22 346.258 1313.29 347.263C1314.38 348.258 1314.92 349.581 1314.92 351.233Z" fill="white"/>
<path d="M1328.34 367.89L1327.09 362.382H1321.4L1320.15 367.89H1316.09L1321.49 345.98H1327L1332.42 367.89H1328.34ZM1326.33 358.785L1325.16 353.711C1325.09 353.402 1324.93 352.631 1324.68 351.397C1324.45 350.154 1324.3 349.323 1324.25 348.905C1324.12 349.761 1323.96 350.706 1323.76 351.741C1323.56 352.766 1323.04 355.114 1322.21 358.785H1326.33Z" fill="white"/>
<path d="M1348.4 367.89H1344.37V349.636H1338.99V367.89H1334.93V346.069H1348.4V367.89Z" fill="white"/>
<path d="M1353.69 368.188C1352.64 368.188 1351.77 368.049 1351.06 367.77V364.158C1351.79 364.447 1352.54 364.591 1353.31 364.591C1354.51 364.591 1355.43 363.482 1356.07 361.263L1350.48 346.069H1354.73L1357.51 354.591C1357.74 355.377 1357.88 356.049 1357.94 356.606H1358.06L1358.27 355.591L1358.49 354.591L1360.86 346.069H1364.97L1360.1 361.502C1359.33 363.939 1358.44 365.666 1357.43 366.681C1356.44 367.686 1355.19 368.188 1353.69 368.188Z" fill="white"/>
<path d="M1375.29 349.308C1374.12 349.308 1373.2 349.989 1372.53 351.353C1371.86 352.716 1371.53 354.611 1371.53 357.039C1371.53 362.094 1372.84 364.621 1375.48 364.621C1376.64 364.621 1377.84 364.253 1379.11 363.517V367.128C1378.04 367.835 1376.68 368.188 1375.02 368.188C1372.56 368.188 1370.67 367.213 1369.35 365.263C1368.03 363.303 1367.38 360.551 1367.38 357.009C1367.38 353.467 1368.05 350.706 1369.41 348.726C1370.77 346.746 1372.66 345.756 1375.08 345.756C1375.87 345.756 1376.64 345.865 1377.36 346.084C1378.1 346.303 1378.88 346.686 1379.72 347.233L1378.38 350.532C1377.93 350.223 1377.45 349.945 1376.94 349.696C1376.44 349.437 1375.88 349.308 1375.29 349.308Z" fill="white"/>
<path d="M1396.02 367.89H1391.47L1385.87 356.83V367.89H1381.84V346.069H1385.87V356.636L1391.56 346.069H1395.9L1389.92 356.576L1396.02 367.89Z" fill="white"/>
<path d="M1406.06 361.412L1413.38 357.099L1406.06 352.815V349.457L1416.58 355.935V358.263L1406.06 364.77V361.412Z" fill="white"/>
<path d="M1176.96 355.688C1088.15 355.688 1016.15 283.656 1016.15 194.799C1016.15 174.587 1019.88 155.245 1026.68 137.424" stroke="#05466C" stroke-width="67.8198"/>
<path d="M1004 186.752L1004.33 182.736L1022.52 184.256L1022.97 178.887L1004.78 177.366L1005.12 173.321L1026.86 175.138L1025.74 188.569L1004 186.752Z" fill="white"/>
<path d="M1019.16 203.691C1016.84 203.727 1015.05 203.168 1013.79 202.013C1012.54 200.868 1011.9 199.191 1011.86 196.983L1011.85 195.968L1003.94 196.09L1003.87 192.031L1025.69 191.694L1025.78 197.23C1025.84 201.469 1023.64 203.622 1019.16 203.691ZM1015.37 195.913L1015.38 196.689C1015.4 197.684 1015.68 198.421 1016.24 198.9C1016.79 199.379 1017.69 199.609 1018.93 199.59C1020.08 199.572 1020.92 199.335 1021.46 198.879C1022.01 198.423 1022.28 197.727 1022.26 196.792L1022.25 195.807L1015.37 195.913Z" fill="white"/>
<path d="M1016.95 221.863C1013.36 222.294 1010.52 221.953 1008.44 220.841C1006.35 219.729 1005.15 217.923 1004.85 215.424C1004.55 212.914 1005.28 210.873 1007.04 209.299C1008.8 207.724 1011.49 206.719 1015.11 206.285C1018.69 205.854 1021.52 206.196 1023.59 207.311C1025.67 208.424 1026.86 210.246 1027.16 212.775C1027.46 215.274 1026.73 217.306 1024.96 218.871C1023.2 220.435 1020.53 221.433 1016.95 221.863ZM1015.57 210.408C1013.1 210.705 1011.26 211.242 1010.04 212.02C1008.82 212.798 1008.28 213.789 1008.43 214.995C1008.72 217.425 1011.39 218.336 1016.45 217.729C1021.51 217.121 1023.89 215.612 1023.6 213.202C1023.46 211.977 1022.7 211.131 1021.33 210.664C1019.97 210.196 1018.05 210.111 1015.57 210.408Z" fill="white"/>
<path d="M1028.27 223.068L1029.52 228.493C1030.03 230.703 1029.97 232.412 1029.34 233.62C1028.72 234.825 1027.47 235.644 1025.6 236.075C1024.37 236.359 1023.28 236.331 1022.32 235.99C1021.37 235.647 1020.7 235.035 1020.32 234.154L1020.17 234.188C1020.15 235.459 1019.79 236.457 1019.09 237.18C1018.38 237.903 1017.35 238.423 1015.98 238.738C1014.05 239.183 1012.42 239.014 1011.09 238.229C1009.76 237.452 1008.9 236.166 1008.48 234.372L1007.01 227.973L1028.27 223.068ZM1020.58 228.764L1021 230.582C1021.19 231.416 1021.55 231.951 1022.07 232.187C1022.59 232.424 1023.3 232.44 1024.18 232.237C1025.06 232.033 1025.65 231.694 1025.94 231.219C1026.23 230.741 1026.29 230.086 1026.1 229.252L1025.71 227.58L1020.58 228.764ZM1017.28 229.526L1011.33 230.898L1011.79 232.89C1011.98 233.714 1012.37 234.267 1012.96 234.548C1013.56 234.839 1014.39 234.863 1015.45 234.619C1017.35 234.181 1018.11 233.128 1017.72 231.46L1017.28 229.526Z" fill="white"/>
<path d="M1014.11 253.615L1011.04 244.271L1031.77 237.453L1034.84 246.798L1031.51 247.894L1029.7 242.406L1024.77 244.029L1026.44 249.119L1023.1 250.22L1021.42 245.129L1015.68 247.018L1017.48 252.505L1014.11 253.615Z" fill="white"/>
<path d="M1034.45 263.243C1032.32 264.163 1030.45 264.33 1028.84 263.745C1027.25 263.166 1026.01 261.862 1025.14 259.834L1024.74 258.902L1017.47 262.039L1015.87 258.312L1035.9 249.658L1038.09 254.742C1039.77 258.634 1038.56 261.467 1034.45 263.243ZM1027.97 257.505L1028.28 258.218C1028.67 259.131 1029.22 259.703 1029.91 259.934C1030.61 260.164 1031.53 260.033 1032.67 259.54C1033.72 259.086 1034.41 258.545 1034.73 257.917C1035.07 257.285 1035.05 256.539 1034.68 255.681L1034.29 254.776L1027.97 257.505Z" fill="white"/>
<path d="M1029.22 285.283L1027.02 281.297L1034 271.052L1024.32 276.396L1022.37 272.867L1041.48 262.323L1043.42 265.852L1034.17 270.958L1046.17 270.832L1048.26 274.635L1036.18 274.471L1029.22 285.283Z" fill="white"/>
<path d="M1036.95 296.587L1040.76 292.415L1037.52 287.743L1032.28 289.856L1029.96 286.521L1051.04 278.458L1054.18 282.982L1039.27 299.934L1036.95 296.587ZM1043.28 289.737L1046.78 285.885C1046.99 285.652 1047.54 285.081 1048.41 284.173C1049.29 283.267 1049.89 282.675 1050.21 282.395C1049.43 282.777 1048.56 283.182 1047.6 283.609C1046.64 284.03 1044.42 284.945 1040.93 286.353L1043.28 289.737Z" fill="white"/>
<path d="M1051.31 304.292L1059.45 306.711L1057.6 298.437L1060.06 296.149L1062.48 308.269L1060.78 309.855L1048.85 306.58L1051.31 304.292Z" fill="white"/>
<path d="M959.522 355.688H1176.99C1252.03 355.688 1315.08 304.486 1332.94 235.2" stroke="url(#paint0_linear_66_5988)" stroke-width="67.8198"/>
<path d="M1159.79 367.889H1155.76V349.636H1150.37V367.889H1146.31V346.069H1159.79V367.889Z" fill="white"/>
<path d="M1178.31 367.889H1174.25V349.636H1170.98C1170.53 354.671 1170.08 358.83 1169.64 362.113C1169.34 364.213 1168.8 365.75 1168.01 366.725C1167.23 367.7 1166.19 368.188 1164.89 368.188C1164.08 368.188 1163.42 368.078 1162.9 367.86V364.501C1163.2 364.621 1163.57 364.681 1164.01 364.681C1164.57 364.681 1164.99 364.243 1165.28 363.367C1165.58 362.491 1165.91 360.526 1166.28 357.472C1166.66 354.417 1167.05 350.616 1167.46 346.069H1178.31V367.889Z" fill="white"/>
<path d="M1193.57 367.137L1191.91 361.739L1186.24 362.164L1185.4 367.75L1181.35 368.054L1185.1 345.801L1190.6 345.389L1197.64 366.832L1193.57 367.137ZM1190.88 358.209L1189.34 353.236C1189.25 352.933 1189.03 352.176 1188.69 350.964C1188.36 349.742 1188.16 348.924 1188.08 348.511C1188.01 349.374 1187.92 350.329 1187.8 351.376C1187.67 352.413 1187.33 354.793 1186.78 358.517L1190.88 358.209Z" fill="white"/>
<path d="M1214.52 363.91L1210.53 364.645L1208.8 355.235L1203.53 356.205L1205.26 365.614L1201.27 366.348L1197.32 344.887L1201.32 344.153L1202.88 352.682L1208.15 351.712L1206.58 343.183L1210.58 342.449L1214.52 363.91Z" fill="white"/>
<path d="M1214.22 341.658L1217.81 340.544L1221.36 351.992C1221.73 353.18 1222 354.382 1222.18 355.597L1222.34 355.549L1224.06 338.608L1228.82 337.131L1235.27 357.975L1231.71 359.08L1228.17 347.66C1227.74 346.253 1227.46 344.984 1227.35 343.852L1227.17 343.909L1225.47 361.016L1220.68 362.501L1214.22 341.658Z" fill="white"/>
<path d="M1245.44 337.34C1246.36 339.468 1246.53 341.336 1245.94 342.944C1245.36 344.538 1244.06 345.775 1242.03 346.652L1241.1 347.055L1244.24 354.316L1240.52 355.928L1231.86 335.9L1236.94 333.7C1240.83 332.017 1243.66 333.23 1245.44 337.34ZM1239.7 343.822L1240.42 343.514C1241.33 343.119 1241.9 342.573 1242.13 341.877C1242.36 341.181 1242.23 340.262 1241.74 339.121C1241.28 338.07 1240.74 337.383 1240.11 337.058C1239.48 336.725 1238.74 336.744 1237.88 337.115L1236.97 337.507L1239.7 343.822Z" fill="white"/>
<path d="M1262.66 332.653C1264.42 335.803 1265.19 338.555 1264.96 340.91C1264.73 343.264 1263.52 345.058 1261.32 346.291C1259.12 347.529 1256.96 347.638 1254.83 346.617C1252.7 345.588 1250.75 343.485 1248.97 340.309C1247.2 337.159 1246.43 334.416 1246.67 332.078C1246.91 329.732 1248.14 327.935 1250.36 326.688C1252.55 325.455 1254.71 325.355 1256.83 326.39C1258.95 327.415 1260.89 329.503 1262.66 332.653ZM1252.6 338.303C1253.82 340.472 1255.02 341.972 1256.2 342.802C1257.38 343.631 1258.51 343.749 1259.56 343.154C1261.7 341.956 1261.52 339.135 1259.03 334.692C1256.53 330.249 1254.23 328.622 1252.11 329.811C1251.04 330.416 1250.54 331.44 1250.64 332.883C1250.72 334.319 1251.38 336.125 1252.6 338.303Z" fill="white"/>
<path d="M1259.14 321.952L1263.68 318.73C1265.53 317.417 1267.13 316.823 1268.49 316.946C1269.84 317.062 1271.07 317.903 1272.18 319.469C1272.91 320.5 1273.3 321.523 1273.35 322.538C1273.39 323.545 1273.08 324.395 1272.41 325.088L1272.5 325.209C1273.68 324.747 1274.74 324.702 1275.68 325.076C1276.62 325.449 1277.49 326.208 1278.3 327.352C1279.45 328.968 1279.91 330.542 1279.69 332.076C1279.48 333.595 1278.62 334.888 1277.12 335.953L1271.76 339.753L1259.14 321.952ZM1267.33 326.9L1268.85 325.821C1269.55 325.325 1269.91 324.79 1269.93 324.215C1269.95 323.64 1269.7 322.984 1269.17 322.245C1268.65 321.506 1268.11 321.094 1267.56 321.008C1267.01 320.913 1266.38 321.114 1265.69 321.609L1264.29 322.602L1267.33 326.9ZM1269.29 329.664L1272.82 334.644L1274.49 333.461C1275.18 332.971 1275.54 332.398 1275.57 331.739C1275.62 331.075 1275.32 330.301 1274.7 329.416C1273.57 327.825 1272.31 327.525 1270.91 328.515L1269.29 329.664Z" fill="white"/>
<path d="M1293.52 322.762L1288.95 319.441L1284.67 323.185L1287.35 328.157L1284.3 330.83L1273.95 310.774L1278.09 307.148L1296.59 320.08L1293.52 322.762ZM1286.01 317.233L1281.8 314.179C1281.54 313.992 1280.92 313.516 1279.92 312.751C1278.92 311.972 1278.26 311.441 1277.95 311.159C1278.42 311.889 1278.92 312.709 1279.45 313.619C1279.97 314.522 1281.13 316.63 1282.91 319.945L1286.01 317.233Z" fill="white"/>
<path d="M1308.53 307.39L1305.78 310.374L1298.75 303.886L1295.11 307.826L1302.14 314.314L1299.39 317.299L1283.36 302.501L1286.11 299.516L1292.48 305.397L1296.11 301.457L1289.74 295.576L1292.49 292.591L1308.53 307.39Z" fill="white"/>
<path d="M1294.3 290.544L1296.52 287.507L1306.19 294.583C1307.2 295.318 1308.13 296.12 1309 296.989L1309.1 296.856L1300.38 282.229L1303.32 278.204L1320.93 291.087L1318.73 294.1L1309.08 287.042C1307.89 286.172 1306.91 285.316 1306.15 284.473L1306.03 284.63L1314.87 299.378L1311.91 303.427L1294.3 290.544Z" fill="white"/>
<path d="M1328.84 277.905L1323.87 286.396L1305.04 275.376L1310 266.884L1313.03 268.656L1310.12 273.642L1314.6 276.265L1317.3 271.64L1320.34 273.419L1317.64 278.044L1322.86 281.097L1325.77 276.111L1328.84 277.905Z" fill="white"/>
<path d="M1328.67 263.819L1327.5 255.408L1320.74 260.512L1317.64 259.221L1327.66 251.998L1329.81 252.894L1331.77 265.111L1328.67 263.819Z" fill="white"/>
<path d="M1290.93 81.3009C1319.87 110.395 1337.76 150.507 1337.76 194.799C1337.76 208.666 1336.01 222.124 1332.71 234.961" stroke="#D8AD59" stroke-width="67.8198"/>
<path d="M1303.65 111.098L1302.86 98.7492L1304.75 97.3998L1316.13 102.224L1313.39 104.17L1305.69 100.727L1306.38 109.152L1303.65 111.098Z" fill="white"/>
<path d="M1307.81 137.972L1306.03 134.457L1311.59 131.634L1307.16 122.901L1301.6 125.725L1299.82 122.21L1308.58 117.766L1309.16 118.911C1314.94 118.276 1320.95 116.696 1327.2 114.171L1331.71 123.064L1315.45 131.318L1316.57 133.527L1307.81 137.972ZM1313.61 127.697L1326.69 121.057L1325.57 118.847C1323.31 119.72 1320.88 120.497 1318.31 121.18C1315.74 121.867 1313.33 122.366 1311.07 122.678L1313.61 127.697Z" fill="white"/>
<path d="M1334.33 128.782L1335.62 132.315L1324.36 136.431C1323.19 136.858 1322.01 137.191 1320.8 137.43L1320.86 137.584L1337.86 138.455L1339.57 143.137L1319.08 150.631L1317.8 147.126L1329.02 143.021C1330.41 142.515 1331.66 142.178 1332.79 142.01L1332.72 141.828L1315.55 140.986L1313.83 136.276L1334.33 128.782Z" fill="white"/>
<path d="M1338.82 160.837C1337.51 161.161 1336.32 161.038 1335.26 160.469C1334.21 159.908 1333.35 158.934 1332.69 157.549L1332.58 157.578C1332.77 159.21 1332.54 160.568 1331.89 161.651C1331.24 162.742 1330.2 163.465 1328.76 163.819C1326.81 164.299 1325.12 164.049 1323.69 163.068C1322.26 162.098 1321.29 160.535 1320.76 158.38C1320.2 156.1 1320.09 154.24 1320.45 152.8L1323.89 151.952C1323.45 153.577 1323.43 155.196 1323.83 156.81C1324.45 159.341 1325.87 160.335 1328.08 159.791C1329.09 159.543 1329.76 158.988 1330.1 158.126C1330.45 157.27 1330.45 156.128 1330.1 154.697L1329.75 153.277L1332.99 152.482L1333.3 153.757C1333.64 155.158 1334.14 156.133 1334.79 156.681C1335.44 157.226 1336.28 157.373 1337.31 157.121C1338.13 156.919 1338.7 156.542 1339.03 155.991C1339.36 155.437 1339.43 154.74 1339.22 153.899C1338.9 152.614 1338.08 151.525 1336.76 150.632L1338.94 148.113C1339.99 148.868 1340.81 149.696 1341.39 150.598C1341.98 151.498 1342.42 152.552 1342.72 153.76C1343.15 155.509 1343.01 157.025 1342.29 158.309C1341.58 159.6 1340.42 160.443 1338.82 160.837Z" fill="white"/>
<path d="M1324.55 177.072L1329.83 175.04L1329.01 169.413L1323.38 168.962L1322.8 164.945L1345.26 167.146L1346.05 172.597L1325.14 181.104L1324.55 177.072ZM1333.28 173.77L1338.13 171.89C1338.43 171.777 1339.17 171.508 1340.35 171.085C1341.55 170.67 1342.35 170.408 1342.76 170.299C1341.89 170.294 1340.93 170.267 1339.88 170.219C1338.84 170.169 1336.44 169.994 1332.68 169.694L1333.28 173.77Z" fill="white"/>
<path d="M1347.04 181.584L1347.16 185.343L1335.18 185.712C1333.94 185.751 1332.71 185.694 1331.49 185.542L1331.49 185.706L1347.36 191.877L1347.51 196.86L1325.7 197.532L1325.59 193.802L1337.54 193.434C1339.01 193.389 1340.31 193.463 1341.43 193.658L1341.42 193.464L1325.39 187.268L1325.23 182.256L1347.04 181.584ZM1354.03 194.464C1352.35 194.317 1351.11 193.808 1350.31 192.936C1349.5 192.075 1349.07 190.779 1349.02 189.049C1348.97 187.358 1349.31 186.078 1350.04 185.21C1350.78 184.341 1352 183.801 1353.69 183.589L1353.79 186.886C1352.8 187.026 1352.14 187.256 1351.8 187.575C1351.46 187.904 1351.3 188.401 1351.32 189.068C1351.34 189.724 1351.56 190.205 1351.96 190.511C1352.37 190.827 1353.02 191.026 1353.92 191.108L1354.03 194.464Z" fill="white"/>
<path d="M1324.44 214.214L1324.79 210.169L1334.32 210.986L1334.78 205.648L1325.24 204.831L1325.59 200.786L1347.33 202.65L1346.98 206.694L1338.34 205.954L1337.89 211.292L1346.53 212.033L1346.18 216.078L1324.44 214.214Z" fill="white"/>
<path d="M1092.61 57.7917C1117.13 42.648 1146.02 33.9099 1176.96 33.9099C1221.5 33.9099 1261.81 52.0285 1290.93 81.3009" stroke="#D17922" stroke-width="67.8198"/>
<path d="M1119.66 54.0986L1107.4 52.4527L1106.45 50.3268L1113.42 40.1171L1114.79 43.1832L1109.9 50.0615L1118.29 51.0325L1119.66 54.0986Z" fill="white"/>
<path d="M1137.48 35.6727C1138.13 37.8998 1138.06 39.774 1137.28 41.2953C1136.5 42.8043 1135.05 43.8659 1132.93 44.4801L1131.96 44.7623L1134.15 52.3613L1130.25 53.4902L1124.19 32.5286L1129.51 30.9888C1133.58 29.8101 1136.24 31.3714 1137.48 35.6727ZM1130.98 41.3787L1131.72 41.1628C1132.68 40.8862 1133.32 40.4172 1133.63 39.7559C1133.95 39.0946 1133.93 38.1665 1133.59 36.9717C1133.27 35.8725 1132.82 35.1223 1132.24 34.7211C1131.65 34.3104 1130.91 34.235 1130.01 34.4951L1129.07 34.769L1130.98 41.3787Z" fill="white"/>
<path d="M1153.32 47.9317L1151.09 42.7457L1145.5 43.7842L1145.27 49.4281L1141.28 50.1695L1142.59 27.6405L1148.01 26.6347L1157.33 47.1876L1153.32 47.9317ZM1149.68 39.3481L1147.61 34.5714C1147.49 34.2808 1147.19 33.5517 1146.72 32.384C1146.26 31.2048 1145.97 30.4142 1145.84 30.0124C1145.87 30.8774 1145.88 31.8368 1145.87 32.8905C1145.86 33.9346 1145.78 36.3379 1145.63 40.1005L1149.68 39.3481Z" fill="white"/>
<path d="M1168.61 29.5606C1168.72 30.9089 1168.42 32.0633 1167.69 33.0238C1166.97 33.9735 1165.88 34.6656 1164.4 35.1L1164.42 35.219C1166.06 35.2793 1167.36 35.7177 1168.33 36.5343C1169.31 37.3401 1169.86 38.4816 1169.98 39.9589C1170.15 41.9616 1169.64 43.5927 1168.45 44.8522C1167.27 46.1108 1165.57 46.834 1163.36 47.0216C1161.02 47.2202 1159.17 47.033 1157.8 46.46L1157.5 42.9205C1159.04 43.6089 1160.64 43.8829 1162.29 43.7424C1164.89 43.5219 1166.09 42.2765 1165.9 40.006C1165.81 38.9749 1165.37 38.2237 1164.57 37.7522C1163.78 37.27 1162.65 37.0912 1161.18 37.2158L1159.73 37.3394L1159.45 34.023L1160.75 33.912C1162.19 33.79 1163.23 33.4521 1163.87 32.8983C1164.52 32.3346 1164.79 31.5272 1164.7 30.4763C1164.63 29.6336 1164.35 29.0085 1163.85 28.601C1163.36 28.1837 1162.68 28.0116 1161.82 28.0848C1160.5 28.1967 1159.3 28.8381 1158.21 30.009L1156.06 27.4652C1156.97 26.5392 1157.91 25.8597 1158.9 25.4269C1159.88 24.9841 1160.99 24.7102 1162.23 24.605C1164.02 24.4527 1165.5 24.8318 1166.65 25.7422C1167.82 26.642 1168.47 27.9147 1168.61 29.5606Z" fill="white"/>
<path d="M1184.04 31.0454C1184.03 33.3637 1183.43 35.1413 1182.25 36.3782C1181.08 37.6053 1179.39 38.2124 1177.18 38.1995L1176.16 38.1936L1176.12 46.1038L1172.06 46.0802L1172.19 24.26L1177.72 24.2922C1181.96 24.3168 1184.07 26.5679 1184.04 31.0454ZM1176.18 34.6713L1176.96 34.6759C1177.96 34.6816 1178.7 34.4123 1179.19 33.8679C1179.68 33.3235 1179.93 32.4294 1179.94 31.1857C1179.94 30.0414 1179.72 29.1944 1179.28 28.6446C1178.83 28.0848 1178.14 27.8021 1177.21 27.7967L1176.22 27.791L1176.18 34.6713Z" fill="white"/>
<path d="M1196.47 47.3309L1195.8 41.7227L1190.15 41.1298L1188.32 46.4765L1184.29 46.0531L1191.94 24.8256L1197.42 25.3999L1200.53 47.7558L1196.47 47.3309ZM1195.42 38.066L1194.79 32.8976C1194.75 32.5836 1194.67 31.8001 1194.56 30.547C1194.45 29.2851 1194.39 28.4438 1194.38 28.023C1194.17 28.8605 1193.9 29.7835 1193.6 30.792C1193.29 31.7905 1192.54 34.072 1191.32 37.6364L1195.42 38.066Z" fill="white"/>
<path d="M1214.3 43.5645C1213.86 45.7283 1212.96 47.2907 1211.61 48.2517C1210.26 49.2049 1208.56 49.4703 1206.51 49.0479L1201.11 47.94L1205.5 26.5646L1215.64 28.6484L1214.93 32.1135L1208.76 30.8464L1207.76 35.7297L1209.02 35.9879C1211.18 36.4323 1212.71 37.2891 1213.59 38.5582C1214.49 39.8293 1214.73 41.4981 1214.3 43.5645ZM1205.8 45.3062L1207.02 45.5584C1208.75 45.9127 1209.83 45.0226 1210.27 42.888C1210.48 41.8645 1210.41 41.0836 1210.06 40.5451C1209.73 39.999 1209.04 39.6198 1208.01 39.4076L1207.05 39.2094L1205.8 45.3062Z" fill="white"/>
<path d="M1232.57 44.9552C1231.47 48.3961 1229.99 50.8348 1228.11 52.2714C1226.23 53.708 1224.09 54.0432 1221.69 53.2771C1219.28 52.508 1217.73 50.998 1217.03 48.7473C1216.33 46.487 1216.53 43.6223 1217.64 40.1529C1218.74 36.712 1220.22 34.2828 1222.1 32.8652C1223.97 31.4381 1226.12 31.1121 1228.55 31.8873C1230.95 32.6534 1232.49 34.1651 1233.18 36.4223C1233.87 38.67 1233.67 41.5143 1232.57 44.9552ZM1221.58 41.4441C1220.83 43.8139 1220.55 45.715 1220.75 47.1475C1220.95 48.58 1221.63 49.481 1222.79 49.8505C1225.12 50.5954 1227.06 48.5412 1228.61 43.6879C1230.16 38.8347 1229.77 36.0386 1227.46 35.2997C1226.29 34.9243 1225.2 35.262 1224.21 36.313C1223.22 37.3545 1222.34 39.0649 1221.58 41.4441Z" fill="white"/>
<path d="M1237.98 59.1706L1234.27 57.555L1241.55 40.8181L1237.72 39.1489L1239.15 35.8781L1250.52 40.8322L1249.09 44.1029L1245.26 42.4337L1237.98 59.1706Z" fill="white"/>
<path d="M1255.2 68.1238L1251.21 65.933L1251.62 53.5425L1246.3 63.2393L1242.77 61.2998L1253.26 42.168L1256.8 44.1075L1251.71 53.3724L1261.78 46.8443L1265.59 48.9346L1255.29 55.2667L1255.2 68.1238Z" fill="white"/>
<path d="M1264.49 74.5756L1266.59 69.3319L1261.91 66.0961L1257.75 69.913L1254.41 67.6029L1271.32 52.6544L1275.84 55.7883L1267.84 76.8942L1264.49 74.5756ZM1268.01 65.94L1269.94 61.1033C1270.06 60.8099 1270.36 60.085 1270.86 58.9285C1271.37 57.7695 1271.73 57.004 1271.92 56.6319C1271.33 57.2622 1270.66 57.9464 1269.91 58.6843C1269.16 59.4141 1267.4 61.0513 1264.62 63.5959L1268.01 65.94Z" fill="white"/>
<path d="M1022.1 151.29C1033.11 111.977 1058.67 78.7498 1092.61 57.7916" stroke="#BA3B46" stroke-width="67.8198"/>
<path d="M1040.1 129.007L1029.9 136.017L1027.77 135.079L1026.08 122.839L1029.15 124.192L1030.15 132.57L1037.02 127.654L1040.1 129.007Z" fill="white"/>
<path d="M1050.87 116.063L1048.77 119.519L1033.17 110.028L1031 113.599L1027.96 111.744L1034.4 101.146L1037.45 103.001L1035.28 106.572L1050.87 116.063Z" fill="white"/>
<path d="M1059.68 103.345L1053.89 111.297L1036.26 98.4442L1042.05 90.4929L1044.88 92.5588L1041.48 97.2282L1045.68 100.288L1048.83 95.9559L1051.68 98.0306L1048.53 102.362L1053.41 105.923L1056.81 101.253L1059.68 103.345Z" fill="white"/>
<path d="M1051.99 83.6674C1051.23 84.5462 1051.14 85.6882 1051.73 87.0936C1052.32 88.4914 1053.53 89.9871 1055.36 91.5805C1059.17 94.8978 1061.95 95.5613 1063.68 93.571C1064.43 92.6998 1064.95 91.5456 1065.22 90.1085L1067.95 92.479C1067.78 93.7463 1067.15 95.0071 1066.06 96.2613C1064.45 98.1165 1062.48 98.9036 1060.14 98.6225C1057.8 98.3275 1055.29 97.0176 1052.62 94.6928C1049.94 92.3681 1048.3 90.0452 1047.7 87.7242C1047.1 85.3957 1047.59 83.3189 1049.18 81.4938C1049.7 80.893 1050.28 80.3902 1050.92 79.9856C1051.57 79.5735 1052.38 79.2316 1053.34 78.9598L1054.94 82.1385C1054.42 82.2741 1053.89 82.4518 1053.37 82.6715C1052.85 82.8848 1052.39 83.2168 1051.99 83.6674Z" fill="white"/>
<path d="M1074.93 86.6849L1072.02 89.4993L1059.33 76.3829L1056.33 79.2908L1053.85 76.7276L1062.75 68.0974L1065.24 70.6606L1062.23 73.5685L1074.93 86.6849Z" fill="white"/>
<defs>
<linearGradient id="paint0_linear_66_5988" x1="959.522" y1="295.444" x2="1332.94" y2="295.444" gradientUnits="userSpaceOnUse">
<stop stop-color="#3D9FBB"/>
<stop offset="1" stop-color="#52ABB3"/>
</linearGradient>
</defs>
</svg>
