<svg width="1032" height="389" viewBox="0 0 1032 389" fill="none" xmlns="http://www.w3.org/2000/svg">
<g clip-path="url(#clip0_71_2)">
<path d="M286.591 355.618H529.478" stroke="#3D9FBB" stroke-width="67.8198"/>
<path d="M425.104 351.164C425.104 352.517 424.701 353.641 423.895 354.537C423.099 355.422 421.949 356.019 420.447 356.328V356.447C422.079 356.646 423.342 357.193 424.238 358.089C425.143 358.974 425.596 360.159 425.596 361.641C425.596 363.651 424.949 365.233 423.656 366.387C422.372 367.541 420.621 368.119 418.402 368.119C416.054 368.119 414.223 367.775 412.91 367.089V363.537C414.382 364.352 415.95 364.76 417.611 364.76C420.218 364.76 421.522 363.621 421.522 361.343C421.522 360.308 421.143 359.522 420.387 358.984C419.641 358.437 418.532 358.164 417.059 358.164H415.596V354.835H416.91C418.352 354.835 419.417 354.586 420.104 354.089C420.79 353.581 421.133 352.8 421.133 351.746C421.133 350.9 420.905 350.253 420.447 349.805C419.989 349.348 419.328 349.119 418.462 349.119C417.139 349.119 415.885 349.656 414.701 350.731L412.775 348.014C413.76 347.169 414.76 346.572 415.775 346.223C416.79 345.865 417.92 345.686 419.163 345.686C420.964 345.686 422.402 346.189 423.477 347.194C424.561 348.189 425.104 349.512 425.104 351.164Z" fill="white"/>
<path d="M438.563 367.82L437.309 362.313H431.623L430.369 367.82H426.309L431.712 345.91H437.22L442.638 367.82H438.563ZM436.548 358.716L435.384 353.641C435.314 353.333 435.155 352.562 434.906 351.328C434.668 350.084 434.523 349.253 434.473 348.835C434.344 349.691 434.18 350.636 433.981 351.671C433.782 352.696 433.265 355.044 432.429 358.716H436.548Z" fill="white"/>
<path d="M458.667 367.82H454.637V349.567H449.25V367.82H445.19V346H458.667V367.82Z" fill="white"/>
<path d="M463.993 368.119C462.948 368.119 462.072 367.979 461.366 367.701V364.089C462.092 364.377 462.844 364.522 463.62 364.522C464.814 364.522 465.734 363.412 466.381 361.193L460.784 346H465.038L467.814 354.522C468.043 355.308 468.187 355.979 468.247 356.537H468.366L468.575 355.522L468.799 354.522L471.172 346H475.276L470.411 361.432C469.635 363.87 468.744 365.596 467.739 366.611C466.744 367.616 465.495 368.119 463.993 368.119Z" fill="white"/>
<path d="M485.633 349.238C484.469 349.238 483.549 349.92 482.872 351.283C482.206 352.646 481.872 354.542 481.872 356.969C481.872 362.024 483.191 364.551 485.827 364.551C486.982 364.551 488.191 364.183 489.454 363.447V367.059C488.39 367.765 487.026 368.119 485.365 368.119C482.907 368.119 481.017 367.143 479.693 365.193C478.38 363.233 477.723 360.482 477.723 356.94C477.723 353.397 478.4 350.636 479.753 348.656C481.116 346.676 483.007 345.686 485.424 345.686C486.22 345.686 486.982 345.796 487.708 346.014C488.444 346.233 489.23 346.616 490.066 347.164L488.723 350.462C488.275 350.154 487.798 349.875 487.29 349.626C486.783 349.368 486.23 349.238 485.633 349.238Z" fill="white"/>
<path d="M506.401 367.82H501.848L496.252 356.761V367.82H492.222V346H496.252V356.567L501.938 346H506.281L500.296 356.507L506.401 367.82Z" fill="white"/>
<path d="M516.504 361.343L523.817 357.029L516.504 352.746V349.388L527.026 355.865V358.193L516.504 364.701V361.343Z" fill="white"/>
<path d="M286.83 355.618C197.973 355.618 125.941 283.586 125.941 194.729C125.941 174.517 129.668 155.176 136.473 137.354" stroke="#05466C" stroke-width="67.8198"/>
<path d="M113.8 186.683L114.135 182.668L132.325 184.187L132.774 178.818L114.584 177.298L114.922 173.253L136.666 175.069L135.544 188.5L113.8 186.683Z" fill="white"/>
<path d="M128.962 203.621C126.644 203.657 124.854 203.098 123.592 201.943C122.34 200.798 121.698 199.121 121.663 196.913L121.648 195.898L113.738 196.02L113.676 191.961L135.494 191.624L135.579 197.16C135.645 201.399 133.439 203.552 128.962 203.621ZM125.17 195.843L125.182 196.619C125.197 197.614 125.482 198.351 126.037 198.83C126.592 199.309 127.491 199.539 128.734 199.52C129.878 199.502 130.721 199.265 131.261 198.809C131.811 198.353 132.079 197.657 132.065 196.722L132.049 195.737L125.17 195.843Z" fill="white"/>
<path d="M126.748 221.792C123.162 222.223 120.325 221.882 118.237 220.77C116.15 219.657 114.956 217.851 114.656 215.352C114.354 212.843 115.081 210.801 116.837 209.228C118.602 207.653 121.292 206.648 124.908 206.214C128.494 205.784 131.321 206.126 133.389 207.241C135.467 208.354 136.658 210.175 136.961 212.704C137.261 215.204 136.528 217.236 134.762 218.801C133.005 220.365 130.334 221.362 126.748 221.792ZM125.373 210.337C122.903 210.634 121.059 211.171 119.839 211.949C118.62 212.727 118.082 213.718 118.227 214.923C118.519 217.354 121.194 218.265 126.252 217.658C131.31 217.051 133.694 215.542 133.405 213.131C133.258 211.906 132.5 211.06 131.131 210.593C129.772 210.125 127.853 210.04 125.373 210.337Z" fill="white"/>
<path d="M138.072 222.997L139.323 228.421C139.833 230.632 139.772 232.341 139.142 233.548C138.521 234.753 137.275 235.572 135.404 236.003C134.173 236.287 133.078 236.259 132.122 235.918C131.175 235.574 130.508 234.962 130.121 234.081L129.975 234.115C129.952 235.387 129.59 236.384 128.888 237.107C128.187 237.831 127.153 238.35 125.786 238.665C123.857 239.11 122.225 238.94 120.89 238.155C119.567 237.378 118.699 236.092 118.285 234.299L116.809 227.9L138.072 222.997ZM130.379 228.692L130.798 230.51C130.99 231.343 131.349 231.879 131.873 232.115C132.397 232.352 133.1 232.368 133.983 232.165C134.865 231.961 135.451 231.622 135.739 231.147C136.038 230.67 136.091 230.014 135.898 229.18L135.513 227.508L130.379 228.692ZM127.078 229.453L121.129 230.825L121.589 232.817C121.779 233.641 122.172 234.194 122.767 234.475C123.366 234.766 124.193 234.79 125.25 234.546C127.15 234.108 127.908 233.055 127.524 231.387L127.078 229.453Z" fill="white"/>
<path d="M123.914 253.54L120.842 244.196L141.572 237.382L144.643 246.726L141.311 247.821L139.507 242.334L134.573 243.956L136.246 249.046L132.9 250.146L131.227 245.056L125.485 246.943L127.288 252.43L123.914 253.54Z" fill="white"/>
<path d="M144.252 263.169C142.124 264.089 140.256 264.256 138.648 263.671C137.054 263.091 135.819 261.787 134.944 259.759L134.541 258.828L127.279 261.963L125.67 258.236L145.703 249.586L147.898 254.67C149.578 258.561 148.363 261.395 144.252 263.169ZM137.775 257.431L138.083 258.144C138.477 259.057 139.022 259.629 139.718 259.86C140.414 260.091 141.332 259.959 142.474 259.466C143.525 259.013 144.212 258.472 144.537 257.844C144.871 257.212 144.853 256.467 144.482 255.608L144.092 254.704L137.775 257.431Z" fill="white"/>
<path d="M139.026 285.206L136.827 281.22L143.808 270.977L134.124 276.319L132.177 272.79L151.284 262.251L153.23 265.779L143.978 270.883L155.977 270.758L158.075 274.561L145.983 274.396L139.026 285.206Z" fill="white"/>
<path d="M146.759 296.509L150.567 292.338L147.324 287.667L142.085 289.779L139.77 286.444L160.848 278.385L163.989 282.909L149.083 299.856L146.759 296.509ZM153.088 289.661L156.592 285.811C156.806 285.578 157.348 285.007 158.22 284.099C159.105 283.193 159.705 282.601 160.02 282.322C159.243 282.704 158.373 283.108 157.41 283.535C156.455 283.956 154.231 284.87 150.738 286.278L153.088 289.661Z" fill="white"/>
<path d="M161.124 304.217L169.263 306.636L167.42 298.363L169.879 296.076L172.301 308.193L170.596 309.778L158.665 306.504L161.124 304.217Z" fill="white"/>
<path d="M-431 355.618H286.909C361.761 355.618 424.652 304.416 442.459 235.131" stroke="#52ABB3" stroke-width="67.8198"/>
<path d="M269.647 367.82H265.617V349.566H260.229V367.82H256.169V345.999H269.647V367.82Z" fill="white"/>
<path d="M288.174 367.82H284.115V349.566H280.846C280.398 354.601 279.95 358.76 279.503 362.044C279.204 364.143 278.662 365.681 277.876 366.656C277.1 367.631 276.06 368.118 274.757 368.118C273.951 368.118 273.289 368.009 272.771 367.79V364.432C273.07 364.551 273.438 364.611 273.876 364.611C274.433 364.611 274.856 364.173 275.145 363.298C275.443 362.422 275.776 360.457 276.145 357.402C276.523 354.347 276.916 350.546 277.324 345.999H288.174V367.82Z" fill="white"/>
<path d="M303.449 367.068L301.787 361.669L296.117 362.095L295.278 367.681L291.23 367.984L294.979 345.731L300.471 345.319L307.513 366.763L303.449 367.068ZM300.759 358.139L299.219 353.166C299.126 352.864 298.91 352.107 298.569 350.895C298.238 349.673 298.032 348.855 297.951 348.442C297.886 349.305 297.793 350.26 297.672 351.307C297.55 352.343 297.21 354.724 296.651 358.448L300.759 358.139Z" fill="white"/>
<path d="M324.407 363.842L320.414 364.576L318.684 355.166L313.415 356.135L315.144 365.544L311.152 366.279L307.206 344.818L311.199 344.084L312.767 352.612L318.037 351.643L316.469 343.115L320.461 342.381L324.407 363.842Z" fill="white"/>
<path d="M324.112 341.588L327.705 340.475L331.253 351.922C331.621 353.11 331.894 354.312 332.073 355.527L332.23 355.479L333.949 338.539L338.71 337.064L345.17 357.906L341.606 359.011L338.067 347.591C337.631 346.185 337.357 344.915 337.246 343.783L337.061 343.841L335.362 360.946L330.572 362.43L324.112 341.588Z" fill="white"/>
<path d="M355.342 337.271C356.263 339.399 356.431 341.267 355.847 342.874C355.269 344.469 353.966 345.705 351.938 346.582L351.007 346.985L354.148 354.245L350.422 355.857L341.758 335.83L346.84 333.631C350.731 331.948 353.565 333.162 355.342 337.271ZM349.608 343.752L350.321 343.444C351.234 343.049 351.806 342.503 352.036 341.807C352.266 341.112 352.134 340.193 351.641 339.051C351.186 338.001 350.645 337.314 350.017 336.989C349.385 336.656 348.639 336.674 347.781 337.046L346.877 337.437L349.608 343.752Z" fill="white"/>
<path d="M372.568 332.584C374.337 335.733 375.106 338.485 374.876 340.84C374.646 343.194 373.433 344.987 371.238 346.22C369.034 347.457 366.87 347.565 364.745 346.545C362.615 345.515 360.659 343.413 358.876 340.237C357.108 337.088 356.343 334.345 356.583 332.008C356.818 329.662 358.046 327.866 360.267 326.619C362.462 325.386 364.62 325.287 366.742 326.321C368.858 327.347 370.8 329.435 372.568 332.584ZM362.508 338.232C363.726 340.401 364.927 341.9 366.112 342.73C367.297 343.56 368.418 343.678 369.477 343.083C371.611 341.885 371.431 339.065 368.937 334.623C366.443 330.18 364.138 328.554 362.021 329.742C360.945 330.346 360.453 331.37 360.544 332.813C360.631 334.248 361.286 336.054 362.508 338.232Z" fill="white"/>
<path d="M369.056 321.881L373.597 318.661C375.448 317.348 377.051 316.754 378.407 316.877C379.758 316.993 380.989 317.834 382.1 319.4C382.831 320.431 383.221 321.454 383.269 322.468C383.312 323.475 383 324.324 382.333 325.017L382.419 325.139C383.604 324.677 384.664 324.632 385.6 325.006C386.535 325.379 387.409 326.138 388.221 327.282C389.366 328.897 389.83 330.471 389.612 332.004C389.396 333.523 388.538 334.815 387.037 335.88L381.68 339.679L369.056 321.881ZM377.25 326.829L378.772 325.75C379.47 325.255 379.828 324.72 379.847 324.145C379.867 323.57 379.614 322.913 379.091 322.175C378.567 321.436 378.03 321.024 377.481 320.938C376.926 320.843 376.3 321.044 375.602 321.539L374.202 322.532L377.25 326.829ZM379.21 329.593L382.741 334.572L384.409 333.389C385.099 332.899 385.461 332.326 385.494 331.668C385.536 331.004 385.243 330.23 384.615 329.345C383.487 327.754 382.225 327.454 380.829 328.444L379.21 329.593Z" fill="white"/>
<path d="M403.449 322.69L398.881 319.369L394.599 323.111L397.281 328.083L394.224 330.755L383.871 310.704L388.017 307.079L406.517 320.008L403.449 322.69ZM395.94 317.162L391.723 314.108C391.468 313.921 390.841 313.445 389.841 312.68C388.843 311.901 388.187 311.371 387.875 311.089C388.341 311.818 388.839 312.638 389.37 313.548C389.895 314.45 391.051 316.559 392.839 319.873L395.94 317.162Z" fill="white"/>
<path d="M418.461 307.316L415.709 310.301L408.676 303.814L405.044 307.753L412.076 314.239L409.324 317.223L393.284 302.429L396.036 299.445L402.411 305.324L406.043 301.386L399.669 295.506L402.422 292.522L418.461 307.316Z" fill="white"/>
<path d="M404.232 290.473L406.452 287.436L416.126 294.51C417.131 295.244 418.067 296.046 418.935 296.915L419.032 296.782L410.31 282.159L413.252 278.135L430.867 291.014L428.665 294.026L419.014 286.97C417.825 286.101 416.848 285.245 416.084 284.402L415.969 284.559L424.806 299.303L421.847 303.351L404.232 290.473Z" fill="white"/>
<path d="M438.779 277.83L433.813 286.32L414.978 275.304L419.943 266.814L422.971 268.585L420.055 273.57L424.538 276.193L427.243 271.568L430.284 273.346L427.579 277.971L432.796 281.023L435.712 276.037L438.779 277.83Z" fill="white"/>
<path d="M438.617 263.745L437.447 255.336L430.681 260.44L427.581 259.149L437.606 251.926L439.756 252.821L441.717 265.036L438.617 263.745Z" fill="white"/>
<path d="M400.862 81.2312C429.821 110.325 447.719 150.437 447.719 194.729C447.719 208.596 445.964 222.054 442.665 234.892" stroke="#D8AD59" stroke-width="67.8198"/>
<path d="M413.594 111.021L412.802 98.6746L414.7 97.3257L426.076 102.15L423.339 104.095L415.636 100.652L416.332 109.076L413.594 111.021Z" fill="white"/>
<path d="M417.765 137.893L415.983 134.379L421.547 131.557L417.118 122.825L411.554 125.647L409.771 122.133L418.53 117.691L419.11 118.835C424.892 118.201 430.908 116.622 437.159 114.099L441.669 122.991L425.403 131.241L426.524 133.45L417.765 137.893ZM423.566 127.62L436.651 120.984L435.53 118.774C433.261 119.646 430.838 120.423 428.261 121.105C425.698 121.792 423.284 122.291 421.021 122.602L423.566 127.62Z" fill="white"/>
<path d="M444.287 128.71L445.578 132.243L434.321 136.357C433.153 136.784 431.966 137.117 430.761 137.356L430.818 137.51L447.822 138.383L449.533 143.065L429.038 150.555L427.758 147.051L438.986 142.947C440.369 142.441 441.623 142.105 442.749 141.937L442.682 141.755L425.513 140.911L423.792 136.201L444.287 128.71Z" fill="white"/>
<path d="M448.786 160.765C447.472 161.088 446.284 160.966 445.222 160.397C444.172 159.835 443.318 158.862 442.659 157.477L442.543 157.505C442.74 159.137 442.51 160.495 441.854 161.578C441.211 162.669 440.169 163.391 438.729 163.746C436.778 164.225 435.087 163.975 433.657 162.995C432.23 162.024 431.251 160.461 430.721 158.306C430.161 156.026 430.057 154.166 430.41 152.727L433.859 151.879C433.419 153.504 433.397 155.123 433.793 156.736C434.416 159.268 435.834 160.262 438.046 159.718C439.051 159.47 439.724 158.916 440.065 158.053C440.419 157.198 440.419 156.055 440.068 154.625L439.718 153.205L442.95 152.41L443.264 153.685C443.609 155.086 444.104 156.061 444.751 156.609C445.408 157.154 446.249 157.301 447.273 157.049C448.094 156.847 448.667 156.47 448.993 155.919C449.328 155.365 449.392 154.668 449.186 153.828C448.87 152.542 448.049 151.453 446.722 150.56L448.9 148.042C449.957 148.796 450.775 149.625 451.356 150.527C451.946 151.427 452.39 152.481 452.687 153.689C453.117 155.438 452.972 156.954 452.253 158.238C451.546 159.528 450.39 160.371 448.786 160.765Z" fill="white"/>
<path d="M434.522 176.999L439.793 174.968L438.977 169.341L433.347 168.89L432.764 164.873L455.223 167.076L456.013 172.526L435.107 181.032L434.522 176.999ZM443.243 173.699L448.098 171.819C448.394 171.705 449.134 171.437 450.319 171.014C451.516 170.599 452.317 170.337 452.724 170.228C451.859 170.223 450.899 170.196 449.847 170.147C448.804 170.097 446.406 169.922 442.652 169.622L443.243 173.699Z" fill="white"/>
<path d="M457.013 181.514L457.129 185.273L445.149 185.642C443.906 185.681 442.675 185.624 441.456 185.472L441.461 185.636L457.33 191.808L457.483 196.79L435.673 197.462L435.558 193.732L447.508 193.364C448.98 193.319 450.276 193.394 451.397 193.588L451.391 193.394L435.357 187.198L435.203 182.186L457.013 181.514ZM463.995 194.395C462.318 194.247 461.078 193.738 460.274 192.867C459.471 192.005 459.043 190.71 458.99 188.979C458.938 187.288 459.277 186.009 460.006 185.14C460.746 184.271 461.964 183.731 463.66 183.519L463.761 186.816C462.77 186.956 462.105 187.186 461.767 187.505C461.428 187.834 461.269 188.331 461.29 188.998C461.31 189.654 461.524 190.135 461.932 190.441C462.34 190.757 462.993 190.956 463.891 191.038L463.995 194.395Z" fill="white"/>
<path d="M434.408 214.146L434.754 210.101L444.286 210.918L444.744 205.579L435.211 204.762L435.558 200.717L457.299 202.58L456.952 206.625L448.313 205.885L447.855 211.223L456.495 211.964L456.148 216.008L434.408 214.146Z" fill="white"/>
<path d="M202.441 57.7221C226.974 42.5784 255.882 33.8403 286.83 33.8403C331.394 33.8403 371.726 51.9589 400.863 81.2313" stroke="#D17922" stroke-width="67.8198"/>
<path d="M229.501 54.0288L217.239 52.3815L216.289 50.2558L223.252 40.0485L224.623 43.1144L219.735 49.991L228.131 50.963L229.501 54.0288Z" fill="white"/>
<path d="M247.332 35.6041C247.976 37.8312 247.907 39.7052 247.125 41.2263C246.35 42.7351 244.901 43.7964 242.779 44.4104L241.804 44.6925L244.003 52.2911L240.103 53.4195L234.039 32.4587L239.358 30.9197C243.429 29.7415 246.087 31.303 247.332 35.6041ZM240.825 41.3089L241.571 41.0932C242.527 40.8167 243.163 40.3478 243.479 39.6866C243.795 39.0254 243.781 38.0974 243.435 36.9026C243.117 35.8035 242.667 35.0533 242.084 34.652C241.499 34.2412 240.758 34.1658 239.859 34.4258L238.913 34.6996L240.825 41.3089Z" fill="white"/>
<path d="M263.18 47.8627L260.943 42.6767L255.352 43.7147L255.124 49.3584L251.133 50.0994L252.446 27.5712L257.86 26.5659L267.187 47.1189L263.18 47.8627ZM259.538 39.2791L257.467 34.5023C257.342 34.2118 257.045 33.4826 256.575 32.315C256.113 31.1357 255.819 30.3452 255.694 29.9434C255.723 30.8083 255.734 31.7676 255.728 32.8214C255.719 33.8654 255.639 36.2686 255.487 40.031L259.538 39.2791Z" fill="white"/>
<path d="M278.471 29.4915C278.586 30.8399 278.279 31.9943 277.552 32.9547C276.834 33.9044 275.739 34.5964 274.268 35.0307L274.278 35.1497C275.921 35.21 277.226 35.6485 278.194 36.4651C279.171 37.271 279.723 38.4125 279.848 39.8898C280.018 41.8925 279.507 43.5236 278.316 44.783C277.134 46.0416 275.438 46.7647 273.227 46.9522C270.887 47.1507 269.034 46.9634 267.667 46.3903L267.367 42.8508C268.903 43.5394 270.499 43.8134 272.155 43.6729C274.753 43.4526 275.955 42.2072 275.763 39.9368C275.675 38.9057 275.232 38.1544 274.433 37.6829C273.643 37.2007 272.515 37.0218 271.047 37.1463L269.59 37.2699L269.309 33.9536L270.617 33.8425C272.055 33.7206 273.095 33.3827 273.737 32.829C274.378 32.2653 274.654 31.458 274.565 30.4071C274.493 29.5643 274.211 28.9392 273.717 28.5318C273.222 28.1144 272.543 27.9423 271.681 28.0155C270.362 28.1273 269.158 28.7687 268.069 29.9395L265.921 27.3956C266.831 26.4696 267.777 25.7902 268.759 25.3574C269.74 24.9147 270.85 24.6408 272.09 24.5357C273.884 24.3834 275.359 24.7626 276.515 25.6731C277.68 26.5729 278.332 27.8457 278.471 29.4915Z" fill="white"/>
<path d="M293.912 30.9757C293.898 33.2941 293.301 35.0717 292.12 36.3086C290.948 37.5356 289.258 38.1427 287.049 38.1299L286.034 38.124L285.989 46.0342L281.929 46.0106L282.056 24.1905L287.593 24.2226C291.831 24.2472 293.938 26.4983 293.912 30.9757ZM286.055 34.6017L286.831 34.6063C287.826 34.612 288.569 34.3427 289.06 33.7983C289.55 33.2539 289.799 32.3598 289.807 31.1161C289.813 29.9718 289.594 29.1248 289.15 28.5749C288.705 28.0151 288.015 27.7325 287.08 27.7271L286.095 27.7214L286.055 34.6017Z" fill="white"/>
<path d="M306.352 47.2605L305.679 41.6524L300.024 41.0598L298.203 46.4065L294.165 45.9834L301.822 24.7557L307.3 25.3297L310.404 47.6851L306.352 47.2605ZM305.297 37.9957L304.668 32.8275C304.631 32.5134 304.553 31.7299 304.434 30.4769C304.326 29.215 304.269 28.3737 304.264 27.9529C304.046 28.7904 303.784 29.7134 303.478 30.7219C303.173 31.7204 302.414 34.0019 301.2 37.5664L305.297 37.9957Z" fill="white"/>
<path d="M324.19 43.4931C323.746 45.6569 322.847 47.2193 321.491 48.1803C320.148 49.1336 318.448 49.3992 316.391 48.977L310.996 47.8696L315.384 26.4948L325.53 28.5775L324.819 32.0425L318.649 30.7761L317.647 35.6592L318.904 35.9173C321.068 36.3615 322.594 37.2181 323.481 38.4871C324.378 39.7581 324.615 41.4267 324.19 43.4931ZM315.681 45.2355L316.909 45.4876C318.635 45.8418 319.716 44.9515 320.154 42.817C320.365 41.7936 320.296 41.0127 319.95 40.4743C319.615 39.9281 318.931 39.549 317.898 39.3369L316.933 39.1389L315.681 45.2355Z" fill="white"/>
<path d="M342.469 44.8823C341.37 48.323 339.881 50.7617 338.002 52.1984C336.122 53.6351 333.984 53.9706 331.586 53.2048C329.178 52.436 327.623 50.9264 326.921 48.6759C326.223 46.416 326.427 43.5514 327.535 40.0823C328.633 36.6416 330.119 34.2123 331.993 32.7946C333.869 31.3674 336.02 31.0412 338.447 31.816C340.845 32.5818 342.389 34.0931 343.078 36.35C343.77 38.5975 343.567 41.4416 342.469 44.8823ZM331.478 41.3728C330.722 43.7425 330.444 45.6435 330.644 47.0759C330.845 48.5082 331.523 49.4091 332.68 49.7783C335.012 50.5229 336.952 48.4687 338.502 43.6156C340.052 38.7626 339.67 35.9668 337.357 35.2283C336.182 34.853 335.097 35.1909 334.104 36.2419C333.113 37.2834 332.238 38.9937 331.478 41.3728Z" fill="white"/>
<path d="M347.881 59.097L344.172 57.4821L351.46 40.7466L347.629 39.0781L349.053 35.8076L360.424 40.7595L359 44.03L355.168 42.3615L347.881 59.097Z" fill="white"/>
<path d="M365.109 68.0475L361.119 65.8575L361.532 53.4693L356.212 63.1649L352.679 61.2262L363.177 42.0968L366.709 44.0354L361.626 53.2992L371.695 46.7711L375.502 48.8606L365.2 55.1928L365.109 68.0475Z" fill="white"/>
<path d="M374.41 74.499L376.511 69.2563L371.834 66.0216L367.67 69.838L364.332 67.5287L381.239 52.5822L385.768 55.715L377.761 76.8168L374.41 74.499ZM377.931 65.865L379.86 61.0293C379.979 60.736 380.286 60.0112 380.784 58.8549C381.295 57.6962 381.649 56.9308 381.845 56.5588C381.252 57.189 380.58 57.873 379.827 58.6109C379.081 59.3406 377.319 60.9775 374.543 63.5218L377.931 65.865Z" fill="white"/>
<path d="M131.893 151.22C142.91 111.907 168.487 78.6804 202.441 57.7222" stroke="#BA3B46" stroke-width="67.8198"/>
<path d="M149.882 128.937L139.688 135.947L137.557 135.009L135.866 122.769L138.94 124.122L139.933 132.5L146.809 127.585L149.882 128.937Z" fill="white"/>
<path d="M160.665 115.988L158.562 119.443L142.968 109.956L140.796 113.526L137.749 111.672L144.196 101.076L147.243 102.93L145.071 106.5L160.665 115.988Z" fill="white"/>
<path d="M169.484 103.271L163.693 111.221L146.056 98.3726L151.847 90.4227L154.682 92.4879L151.281 97.1565L155.479 100.215L158.634 95.8839L161.481 97.9579L158.326 102.289L163.212 105.848L166.613 101.179L169.484 103.271Z" fill="white"/>
<path d="M161.799 83.5966C161.035 84.4751 160.946 85.6169 161.53 87.0219C162.122 88.4194 163.333 89.9146 165.166 91.5075C168.98 94.8239 171.752 95.4871 173.483 93.4972C174.24 92.6262 174.755 91.4723 175.029 90.0355L177.754 92.4053C177.589 93.6723 176.961 94.9328 175.871 96.1868C174.258 98.0415 172.282 98.8284 169.942 98.5476C167.601 98.2527 165.094 96.9432 162.421 94.6191C159.748 92.2951 158.108 89.9728 157.501 87.6525C156.901 85.3246 157.395 83.2483 158.981 81.4236C159.503 80.8229 160.085 80.3203 160.727 79.9158C161.375 79.5037 162.18 79.1618 163.142 78.8901L164.749 82.068C164.223 82.2035 163.699 82.3812 163.179 82.6009C162.65 82.8141 162.191 83.146 161.799 83.5966Z" fill="white"/>
<path d="M184.742 86.6108L181.836 89.4245L169.138 76.3114L166.136 79.2185L163.655 76.6559L172.565 68.0281L175.046 70.5906L172.044 73.4977L184.742 86.6108Z" fill="white"/>
<path d="M746 356H1489" stroke="#3D9FBB" stroke-width="67.8198"/>
<path d="M883.918 351.164C883.918 352.517 883.515 353.641 882.709 354.537C881.913 355.422 880.764 356.019 879.261 356.328V356.447C880.893 356.646 882.157 357.193 883.052 358.089C883.958 358.974 884.411 360.159 884.411 361.641C884.411 363.651 883.764 365.233 882.47 366.387C881.187 367.541 879.436 368.119 877.217 368.119C874.868 368.119 873.038 367.775 871.724 367.089V363.537C873.197 364.352 874.764 364.76 876.426 364.76C879.033 364.76 880.336 363.621 880.336 361.343C880.336 360.308 879.958 359.522 879.202 358.984C878.455 358.437 877.346 358.164 875.873 358.164H874.411V354.835H875.724C877.167 354.835 878.232 354.586 878.918 354.089C879.605 353.581 879.948 352.8 879.948 351.746C879.948 350.9 879.719 350.253 879.261 349.805C878.804 349.348 878.142 349.119 877.276 349.119C875.953 349.119 874.699 349.656 873.515 350.731L871.59 348.014C872.575 347.169 873.575 346.572 874.59 346.223C875.605 345.865 876.734 345.686 877.978 345.686C879.779 345.686 881.217 346.189 882.291 347.194C883.376 348.189 883.918 349.512 883.918 351.164Z" fill="white"/>
<path d="M897.341 367.82L896.088 362.313H890.401L889.148 367.82H885.088L890.491 345.91H895.998L901.416 367.82H897.341ZM895.327 358.716L894.162 353.641C894.093 353.333 893.934 352.562 893.685 351.328C893.446 350.084 893.302 349.253 893.252 348.835C893.123 349.691 892.958 350.636 892.759 351.671C892.56 352.696 892.043 355.044 891.207 358.716H895.327Z" fill="white"/>
<path d="M917.404 367.82H913.374V349.567H907.986V367.82H903.926V346H917.404V367.82Z" fill="white"/>
<path d="M922.685 368.119C921.641 368.119 920.765 367.979 920.059 367.701V364.089C920.785 364.377 921.536 364.522 922.312 364.522C923.506 364.522 924.427 363.412 925.073 361.193L919.477 346H923.73L926.506 354.522C926.735 355.308 926.879 355.979 926.939 356.537H927.059L927.267 355.522L927.491 354.522L929.864 346H933.969L929.103 361.432C928.327 363.87 927.437 365.596 926.432 366.611C925.437 367.616 924.188 368.119 922.685 368.119Z" fill="white"/>
<path d="M944.287 349.238C943.123 349.238 942.203 349.92 941.526 351.283C940.859 352.646 940.526 354.542 940.526 356.969C940.526 362.024 941.844 364.551 944.481 364.551C945.635 364.551 946.844 364.183 948.108 363.447V367.059C947.043 367.765 945.68 368.119 944.019 368.119C941.561 368.119 939.67 367.143 938.347 365.193C937.034 363.233 936.377 360.482 936.377 356.94C936.377 353.397 937.053 350.636 938.407 348.656C939.77 346.676 941.66 345.686 944.078 345.686C944.874 345.686 945.635 345.796 946.362 346.014C947.098 346.233 947.884 346.616 948.72 347.164L947.377 350.462C946.929 350.154 946.451 349.875 945.944 349.626C945.436 349.368 944.884 349.238 944.287 349.238Z" fill="white"/>
<path d="M965.02 367.82H960.468L954.871 356.761V367.82H950.841V346H954.871V356.567L960.558 346H964.901L958.916 356.507L965.02 367.82Z" fill="white"/>
<path d="M975.062 361.343L982.375 357.029L975.062 352.746V349.388L985.584 355.865V358.193L975.062 364.701V361.343Z" fill="white"/>
<path d="M745.955 355.618C657.145 355.618 585.151 283.586 585.151 194.729C585.151 174.517 588.876 155.176 595.677 137.354" stroke="#05466C" stroke-width="67.8198"/>
<path d="M572.999 186.682L573.334 182.666L591.524 184.187L591.972 178.817L573.782 177.297L574.12 173.251L595.865 175.069L594.743 188.499L572.999 186.682Z" fill="white"/>
<path d="M588.16 203.622C585.842 203.657 584.052 203.098 582.791 201.943C581.539 200.798 580.896 199.121 580.862 196.913L580.846 195.898L572.937 196.02L572.874 191.961L594.692 191.624L594.778 197.16C594.843 201.399 592.637 203.552 588.16 203.622ZM584.368 195.844L584.38 196.62C584.396 197.614 584.681 198.351 585.235 198.83C585.79 199.31 586.689 199.539 587.933 199.52C589.077 199.503 589.919 199.266 590.46 198.809C591.01 198.353 591.278 197.657 591.263 196.722L591.248 195.737L584.368 195.844Z" fill="white"/>
<path d="M585.946 221.794C582.36 222.225 579.523 221.884 577.435 220.772C575.348 219.659 574.154 217.854 573.854 215.354C573.553 212.845 574.28 210.803 576.036 209.229C577.801 207.655 580.491 206.65 584.107 206.216C587.693 205.785 590.52 206.127 592.588 207.241C594.666 208.355 595.856 210.176 596.16 212.705C596.46 215.205 595.726 217.237 593.96 218.802C592.203 220.366 589.532 221.363 585.946 221.794ZM584.572 210.339C582.102 210.635 580.257 211.173 579.038 211.951C577.818 212.728 577.281 213.72 577.425 214.925C577.717 217.355 580.392 218.267 585.45 217.659C590.508 217.052 592.892 215.543 592.603 213.132C592.456 211.907 591.698 211.061 590.33 210.594C588.971 210.126 587.051 210.041 584.572 210.339Z" fill="white"/>
<path d="M597.27 222.998L598.52 228.423C599.03 230.634 598.969 232.343 598.339 233.55C597.718 234.755 596.472 235.574 594.601 236.005C593.369 236.289 592.275 236.261 591.318 235.92C590.371 235.577 589.705 234.965 589.318 234.084L589.172 234.118C589.149 235.389 588.787 236.387 588.085 237.11C587.384 237.834 586.35 238.353 584.983 238.668C583.054 239.114 581.422 238.944 580.087 238.159C578.764 237.382 577.896 236.096 577.483 234.303L576.008 227.903L597.27 222.998ZM589.577 228.694L589.996 230.512C590.188 231.346 590.546 231.881 591.07 232.118C591.594 232.354 592.298 232.37 593.18 232.167C594.062 231.963 594.648 231.624 594.936 231.149C595.235 230.672 595.288 230.016 595.096 229.182L594.71 227.51L589.577 228.694ZM586.275 229.456L580.327 230.828L580.786 232.821C580.976 233.645 581.369 234.197 581.965 234.479C582.563 234.769 583.39 234.793 584.447 234.549C586.347 234.111 587.105 233.058 586.721 231.39L586.275 229.456Z" fill="white"/>
<path d="M583.11 253.545L580.04 244.201L600.768 237.384L603.838 246.728L600.506 247.824L598.703 242.336L593.769 243.959L595.442 249.049L592.096 250.15L590.423 245.059L584.681 246.948L586.484 252.435L583.11 253.545Z" fill="white"/>
<path d="M603.445 263.174C601.317 264.093 599.449 264.26 597.842 263.676C596.248 263.096 595.014 261.792 594.139 259.764L593.736 258.832L586.475 261.969L584.866 258.242L604.897 249.588L607.091 254.672C608.771 258.564 607.556 261.398 603.445 263.174ZM596.97 257.435L597.277 258.148C597.672 259.062 598.217 259.634 598.912 259.864C599.608 260.095 600.526 259.964 601.668 259.47C602.719 259.016 603.406 258.476 603.731 257.847C604.065 257.215 604.047 256.47 603.677 255.611L603.286 254.707L596.97 257.435Z" fill="white"/>
<path d="M598.218 285.214L596.02 281.227L603.001 270.982L593.318 276.326L591.372 272.797L610.476 262.253L612.422 265.782L603.17 270.888L615.167 270.762L617.264 274.565L605.176 274.401L598.218 285.214Z" fill="white"/>
<path d="M605.949 296.518L609.757 292.345L606.515 287.674L601.277 289.786L598.962 286.451L620.037 278.388L623.177 282.913L608.272 299.865L605.949 296.518ZM612.277 289.668L615.781 285.816C615.994 285.583 616.537 285.012 617.408 284.103C618.294 283.198 618.894 282.605 619.209 282.326C618.432 282.708 617.562 283.112 616.599 283.539C615.644 283.96 613.42 284.875 609.928 286.283L612.277 289.668Z" fill="white"/>
<path d="M620.31 304.222L628.447 306.642L626.605 298.367L629.063 296.079L631.484 308.199L629.779 309.785L617.852 306.51L620.31 304.222Z" fill="white"/>
<path d="M528.522 355.618H745.988C821.032 355.618 884.085 304.416 901.937 235.131" stroke="url(#paint0_linear_71_2)" stroke-width="67.8198"/>
<path d="M728.79 367.82H724.76V349.566H719.372V367.82H715.312V345.999H728.79V367.82Z" fill="white"/>
<path d="M747.307 367.82H743.248V349.566H739.979C739.531 354.601 739.084 358.76 738.636 362.044C738.337 364.143 737.795 365.681 737.009 366.656C736.233 367.631 735.193 368.118 733.89 368.118C733.084 368.118 732.422 368.009 731.905 367.79V364.432C732.203 364.551 732.571 364.611 733.009 364.611C733.566 364.611 733.989 364.173 734.278 363.298C734.576 362.422 734.91 360.457 735.278 357.402C735.656 354.347 736.049 350.546 736.457 345.999H747.307V367.82Z" fill="white"/>
<path d="M762.573 367.067L760.911 361.669L755.241 362.095L754.402 367.68L750.354 367.984L754.103 345.731L759.595 345.319L766.636 366.762L762.573 367.067ZM759.883 358.139L758.343 353.166C758.25 352.864 758.034 352.107 757.694 350.895C757.362 349.672 757.156 348.855 757.076 348.442C757.011 349.305 756.918 350.26 756.796 351.306C756.675 352.343 756.334 354.724 755.775 358.447L759.883 358.139Z" fill="white"/>
<path d="M783.521 363.841L779.528 364.575L777.799 355.166L772.53 356.135L774.259 365.544L770.266 366.279L766.322 344.818L770.315 344.083L771.882 352.612L777.152 351.643L775.585 343.114L779.577 342.379L783.521 363.841Z" fill="white"/>
<path d="M783.22 341.588L786.812 340.474L790.358 351.922C790.726 353.111 791 354.312 791.178 355.528L791.335 355.479L793.056 338.538L797.817 337.062L804.274 357.905L800.71 359.01L797.173 347.59C796.737 346.184 796.463 344.914 796.352 343.782L796.167 343.839L794.466 360.946L789.676 362.432L783.22 341.588Z" fill="white"/>
<path d="M814.439 337.27C815.359 339.398 815.527 341.266 814.943 342.874C814.364 344.469 813.061 345.705 811.034 346.582L810.103 346.986L813.242 354.246L809.516 355.859L800.857 335.83L805.938 333.631C809.828 331.947 812.662 333.16 814.439 337.27ZM808.705 343.752L809.417 343.444C810.33 343.049 810.902 342.503 811.132 341.807C811.362 341.111 811.231 340.193 810.737 339.051C810.283 338.001 809.742 337.313 809.114 336.989C808.482 336.655 807.737 336.674 806.878 337.046L805.974 337.437L808.705 343.752Z" fill="white"/>
<path d="M831.657 332.583C833.424 335.733 834.193 338.485 833.963 340.84C833.732 343.195 832.52 344.989 830.325 346.222C828.121 347.459 825.958 347.568 823.833 346.547C821.704 345.518 819.748 343.415 817.966 340.239C816.198 337.09 815.435 334.346 815.675 332.009C815.91 329.662 817.138 327.866 819.359 326.618C821.553 325.385 823.711 325.286 825.832 326.32C827.948 327.346 829.889 329.433 831.657 332.583ZM821.598 338.233C822.815 340.403 824.016 341.902 825.201 342.732C826.385 343.562 827.506 343.679 828.565 343.085C830.699 341.886 830.519 339.065 828.026 334.622C825.533 330.18 823.228 328.553 821.112 329.742C820.036 330.346 819.544 331.37 819.635 332.814C819.721 334.249 820.376 336.055 821.598 338.233Z" fill="white"/>
<path d="M828.141 321.882L832.681 318.661C834.531 317.348 836.134 316.753 837.49 316.877C838.841 316.992 840.071 317.833 841.182 319.4C841.912 320.431 842.302 321.454 842.351 322.468C842.394 323.475 842.081 324.325 841.414 325.018L841.5 325.14C842.685 324.677 843.745 324.633 844.68 325.006C845.616 325.379 846.489 326.138 847.301 327.283C848.446 328.898 848.909 330.473 848.691 332.006C848.476 333.526 847.617 334.818 846.116 335.883L840.76 339.684L828.141 321.882ZM836.332 326.831L837.854 325.751C838.552 325.256 838.91 324.721 838.93 324.146C838.949 323.571 838.697 322.914 838.173 322.175C837.649 321.437 837.113 321.024 836.564 320.938C836.009 320.844 835.383 321.044 834.685 321.539L833.285 322.533L836.332 326.831ZM838.292 329.595L841.822 334.575L843.49 333.391C844.179 332.902 844.541 332.328 844.574 331.67C844.616 331.006 844.323 330.232 843.696 329.347C842.568 327.756 841.306 327.455 839.911 328.446L838.292 329.595Z" fill="white"/>
<path d="M862.522 322.693L857.955 319.371L853.675 323.115L856.355 328.088L853.299 330.76L842.949 310.705L847.094 307.079L865.589 320.01L862.522 322.693ZM855.015 317.164L850.8 314.109C850.544 313.923 849.917 313.447 848.918 312.681C847.92 311.902 847.264 311.371 846.952 311.09C847.418 311.819 847.916 312.639 848.447 313.549C848.972 314.452 850.127 316.561 851.914 319.876L855.015 317.164Z" fill="white"/>
<path d="M877.528 307.32L874.776 310.305L867.746 303.817L864.114 307.756L871.145 314.244L868.393 317.229L852.357 302.431L855.109 299.446L861.481 305.327L865.113 301.387L858.74 295.507L861.492 292.522L877.528 307.32Z" fill="white"/>
<path d="M863.3 290.475L865.519 287.438L875.192 294.514C876.196 295.248 877.132 296.05 878 296.919L878.097 296.787L869.376 282.16L872.317 278.135L889.928 291.018L887.727 294.03L878.078 286.972C876.889 286.103 875.913 285.247 875.149 284.404L875.034 284.561L883.87 299.309L880.911 303.358L863.3 290.475Z" fill="white"/>
<path d="M897.837 277.835L892.874 286.327L874.041 275.306L879.004 266.815L882.032 268.586L879.117 273.573L883.599 276.196L886.303 271.57L889.344 273.349L886.64 277.975L891.857 281.028L894.772 276.041L897.837 277.835Z" fill="white"/>
<path d="M897.675 263.75L896.504 255.339L889.74 260.443L886.64 259.151L896.663 251.928L898.812 252.824L900.775 265.041L897.675 263.75Z" fill="white"/>
<path d="M859.929 81.2312C888.872 110.325 906.761 150.437 906.761 194.729C906.761 208.596 905.007 222.054 901.71 234.892" stroke="#D8AD59" stroke-width="67.8198"/>
<path d="M872.647 111.029L871.856 98.6795L873.754 97.3301L885.126 102.154L882.39 104.1L874.689 100.657L875.384 109.083L872.647 111.029Z" fill="white"/>
<path d="M876.809 137.902L875.027 134.388L880.591 131.564L876.164 122.832L870.6 125.655L868.819 122.14L877.576 117.696L878.157 118.841C883.937 118.206 889.952 116.626 896.202 114.102L900.71 122.994L884.446 131.248L885.567 133.458L876.809 137.902ZM882.611 127.627L895.694 120.987L894.574 118.778C892.305 119.65 889.882 120.428 887.306 121.11C884.742 121.797 882.329 122.297 880.066 122.608L882.611 127.627Z" fill="white"/>
<path d="M903.326 128.712L904.616 132.245L893.36 136.361C892.192 136.788 891.006 137.121 889.801 137.361L889.857 137.515L906.859 138.385L908.57 143.068L888.076 150.561L886.796 147.057L898.024 142.951C899.407 142.445 900.661 142.108 901.786 141.941L901.72 141.758L884.553 140.916L882.832 136.206L903.326 128.712Z" fill="white"/>
<path d="M907.82 160.768C906.506 161.091 905.318 160.968 904.256 160.399C903.206 159.838 902.352 158.865 901.694 157.479L901.578 157.508C901.774 159.14 901.544 160.498 900.888 161.581C900.245 162.672 899.203 163.395 897.763 163.749C895.812 164.229 894.121 163.979 892.691 162.999C891.264 162.028 890.286 160.465 889.756 158.311C889.196 156.03 889.092 154.17 889.445 152.731L892.895 151.882C892.454 153.507 892.432 155.126 892.828 156.74C893.451 159.272 894.868 160.265 897.081 159.721C898.085 159.474 898.759 158.919 899.1 158.056C899.453 157.201 899.454 156.058 899.103 154.628L898.753 153.207L901.985 152.412L902.299 153.688C902.643 155.089 903.139 156.063 903.786 156.611C904.442 157.157 905.283 157.303 906.307 157.051C907.128 156.849 907.702 156.473 908.027 155.921C908.362 155.367 908.427 154.67 908.22 153.829C907.904 152.544 907.083 151.455 905.757 150.562L907.935 148.043C908.992 148.798 909.81 149.626 910.391 150.529C910.981 151.429 911.424 152.483 911.721 153.69C912.151 155.439 912.006 156.956 911.287 158.239C910.579 159.53 909.424 160.373 907.82 160.768Z" fill="white"/>
<path d="M893.555 177.002L898.825 174.97L898.01 169.343L892.379 168.893L891.797 164.875L914.255 167.076L915.045 172.527L894.139 181.034L893.555 177.002ZM902.276 173.701L907.131 171.82C907.426 171.707 908.166 171.439 909.352 171.015C910.548 170.6 911.35 170.338 911.756 170.229C910.891 170.224 909.932 170.197 908.879 170.149C907.836 170.099 905.438 169.924 901.685 169.624L902.276 173.701Z" fill="white"/>
<path d="M916.044 181.514L916.16 185.274L904.181 185.643C902.938 185.681 901.707 185.624 900.487 185.473L900.492 185.637L916.361 191.808L916.515 196.79L894.704 197.462L894.59 193.733L906.539 193.365C908.011 193.319 909.307 193.394 910.428 193.588L910.422 193.394L894.388 187.199L894.234 182.186L916.044 181.514ZM923.026 194.395C921.349 194.247 920.109 193.738 919.306 192.867C918.503 192.006 918.074 190.71 918.021 188.979C917.969 187.289 918.308 186.009 919.038 185.14C919.778 184.271 920.995 183.731 922.691 183.519L922.793 186.816C921.801 186.956 921.137 187.186 920.798 187.505C920.46 187.834 920.301 188.332 920.321 188.998C920.342 189.654 920.555 190.136 920.963 190.442C921.371 190.757 922.024 190.956 922.923 191.038L923.026 194.395Z" fill="white"/>
<path d="M893.439 214.144L893.786 210.099L903.318 210.917L903.775 205.578L894.243 204.761L894.589 200.716L916.33 202.58L915.984 206.625L907.344 205.884L906.887 211.222L915.527 211.963L915.18 216.008L893.439 214.144Z" fill="white"/>
<path d="M661.61 57.7221C686.131 42.5784 715.024 33.8403 745.956 33.8403C790.497 33.8403 830.808 51.9589 859.929 81.2313" stroke="#D17922" stroke-width="67.8198"/>
<path d="M688.663 54.029L676.403 52.3831L675.453 50.2572L682.417 40.0475L683.786 43.1137L678.898 49.9919L687.293 50.9629L688.663 54.029Z" fill="white"/>
<path d="M706.485 35.603C707.129 37.8301 707.06 39.7043 706.278 41.2256C705.502 42.7346 704.054 43.7962 701.932 44.4104L700.957 44.6926L703.154 52.2916L699.255 53.4205L693.193 32.4589L698.512 30.9191C702.583 29.7404 705.241 31.3017 706.485 35.603ZM699.978 41.309L700.724 41.0931C701.68 40.8165 702.316 40.3475 702.632 39.6862C702.948 39.0249 702.934 38.0968 702.588 36.902C702.27 35.8028 701.82 35.0526 701.238 34.6514C700.653 34.2406 699.912 34.1653 699.013 34.4254L698.067 34.6993L699.978 41.309Z" fill="white"/>
<path d="M722.325 47.8621L720.087 42.6761L714.497 43.7146L714.269 49.3585L710.277 50.0999L711.592 27.5709L717.007 26.5651L726.331 47.118L722.325 47.8621ZM718.683 39.2786L716.612 34.5018C716.488 34.2112 716.19 33.4821 715.721 32.3145C715.259 31.1352 714.966 30.3446 714.84 29.9428C714.869 30.8078 714.88 31.7672 714.874 32.821C714.865 33.865 714.785 36.2683 714.633 40.0309L718.683 39.2786Z" fill="white"/>
<path d="M737.609 29.491C737.723 30.8393 737.416 31.9938 736.689 32.9542C735.971 33.9039 734.876 34.596 733.405 35.0304L733.415 35.1494C735.058 35.2097 736.363 35.6481 737.331 36.4647C738.308 37.2705 738.859 38.412 738.985 39.8893C739.154 41.892 738.644 43.5231 737.452 44.7826C736.271 46.0412 734.575 46.7644 732.364 46.952C730.024 47.1506 728.171 46.9634 726.804 46.3904L726.504 42.8509C728.04 43.5394 729.636 43.8133 731.292 43.6728C733.889 43.4523 735.092 42.2069 734.899 39.9365C734.812 38.9053 734.369 38.1541 733.57 37.6826C732.78 37.2005 731.652 37.0216 730.184 37.1462L728.727 37.2699L728.446 33.9535L729.754 33.8424C731.192 33.7204 732.232 33.3825 732.874 32.8287C733.515 32.265 733.791 31.4577 733.702 30.4067C733.631 29.564 733.348 28.9389 732.854 28.5315C732.359 28.1141 731.681 27.942 730.818 28.0152C729.499 28.1271 728.296 28.7686 727.207 29.9395L725.059 27.3956C725.969 26.4696 726.915 25.7901 727.897 25.3573C728.878 24.9146 729.988 24.6406 731.227 24.5354C733.021 24.3831 734.497 24.7622 735.652 25.6727C736.817 26.5724 737.469 27.8452 737.609 29.491Z" fill="white"/>
<path d="M753.041 30.9758C753.028 33.2941 752.43 35.0717 751.249 36.3087C750.078 37.5357 748.388 38.1428 746.179 38.1299L745.164 38.124L745.118 46.0342L741.058 46.0106L741.185 24.1905L746.722 24.2226C750.961 24.2473 753.067 26.4983 753.041 30.9758ZM745.184 34.6018L745.96 34.6063C746.955 34.6121 747.698 34.3427 748.189 33.7983C748.68 33.2539 748.929 32.3598 748.936 31.1161C748.943 29.9719 748.724 29.1248 748.279 28.575C747.835 28.0152 747.145 27.7326 746.209 27.7271L745.224 27.7214L745.184 34.6018Z" fill="white"/>
<path d="M765.474 47.2613L764.801 41.6532L759.145 41.0602L757.325 46.4069L753.287 45.9836L760.943 24.7561L766.42 25.3303L769.526 47.6862L765.474 47.2613ZM764.418 37.9964L763.789 32.8281C763.752 32.514 763.674 31.7305 763.555 30.4775C763.447 29.2156 763.39 28.3742 763.384 27.9534C763.167 28.791 762.905 29.7139 762.599 30.7224C762.295 31.7209 761.535 34.0024 760.322 37.5669L764.418 37.9964Z" fill="white"/>
<path d="M783.304 43.495C782.86 45.6589 781.96 47.2213 780.605 48.1822C779.262 49.1354 777.562 49.4008 775.505 48.9785L770.11 47.8705L774.496 26.4952L784.642 28.579L783.931 32.0441L777.762 30.777L776.76 35.6603L778.017 35.9185C780.181 36.3629 781.706 37.2196 782.594 38.4887C783.491 39.7599 783.728 41.4286 783.304 43.495ZM774.795 45.2367L776.023 45.489C777.748 45.8433 778.83 44.9531 779.268 42.8185C779.478 41.7951 779.409 41.0141 779.063 40.4757C778.728 39.9295 778.044 39.5503 777.011 39.3381L776.046 39.14L774.795 45.2367Z" fill="white"/>
<path d="M801.573 44.8858C800.475 48.3266 798.986 50.7654 797.107 52.202C795.228 53.6385 793.09 53.9738 790.692 53.2077C788.284 52.4385 786.73 50.9286 786.027 48.6778C785.328 46.4176 785.532 43.5528 786.64 40.0835C787.738 36.6426 789.223 34.2133 791.096 32.7957C792.972 31.3686 795.123 31.0426 797.55 31.8178C799.948 32.584 801.492 34.0956 802.181 36.3528C802.874 38.6006 802.671 41.4449 801.573 44.8858ZM790.583 41.3746C789.827 43.7444 789.549 45.6455 789.75 47.0781C789.951 48.5106 790.629 49.4116 791.785 49.781C794.117 50.5259 796.057 48.4717 797.606 43.6185C799.155 38.7652 798.773 35.9692 796.461 35.2303C795.285 34.8548 794.201 35.1925 793.208 36.2435C792.217 37.285 791.342 38.9954 790.583 41.3746Z" fill="white"/>
<path d="M806.977 59.101L803.269 57.4854L810.554 40.7485L806.723 39.0793L808.146 35.8086L819.517 40.7626L818.093 44.0333L814.262 42.3641L806.977 59.101Z" fill="white"/>
<path d="M824.198 68.0541L820.208 65.8632L820.62 53.4728L815.302 63.1696L811.769 61.2301L822.263 42.0983L825.795 44.0378L820.714 53.3027L830.78 46.7746L834.587 48.8649L824.288 55.197L824.198 68.0541Z" fill="white"/>
<path d="M833.49 74.5061L835.591 69.2624L830.915 66.0265L826.752 69.8434L823.414 67.5333L840.316 52.5848L844.845 55.7187L836.841 76.8246L833.49 74.5061ZM837.01 65.8704L838.939 61.0337C839.057 60.7403 839.364 60.0154 839.861 58.859C840.372 57.7 840.726 56.9344 840.923 56.5624C840.33 57.1926 839.657 57.8768 838.905 58.6148C838.159 59.3446 836.398 60.9817 833.623 63.5263L837.01 65.8704Z" fill="white"/>
<path d="M591.099 151.22C602.111 111.907 627.674 78.6804 661.61 57.7222" stroke="#BA3B46" stroke-width="67.8198"/>
<path d="M609.096 128.937L598.902 135.947L596.771 135.009L595.08 122.769L598.154 124.122L599.147 132.5L606.022 127.585L609.096 128.937Z" fill="white"/>
<path d="M619.868 115.993L617.766 119.449L602.174 109.958L600.003 113.529L596.956 111.674L603.4 101.077L606.447 102.932L604.276 106.502L619.868 115.993Z" fill="white"/>
<path d="M628.681 103.276L622.892 111.227L605.258 98.3745L611.047 90.4232L613.882 92.4891L610.482 97.1585L614.679 100.218L617.833 95.8862L620.68 97.9609L617.526 102.293L622.411 105.853L625.811 101.183L628.681 103.276Z" fill="white"/>
<path d="M620.994 83.5978C620.231 84.4766 620.141 85.6186 620.726 87.024C621.317 88.4219 622.529 89.9175 624.36 91.5109C628.174 94.8282 630.946 95.4918 632.675 93.5014C633.432 92.6302 633.947 91.476 634.221 90.0389L636.946 92.4094C636.781 93.6767 636.153 94.9375 635.063 96.1918C633.451 98.0469 631.475 98.834 629.136 98.553C626.796 98.2579 624.289 96.948 621.616 94.6232C618.944 92.2985 617.304 89.9756 616.698 87.6546C616.098 85.3261 616.591 83.2493 618.177 81.4242C618.699 80.8234 619.281 80.3207 619.923 79.916C620.571 79.5039 621.375 79.162 622.336 78.8902L623.944 82.069C623.418 82.2045 622.894 82.3822 622.374 82.602C621.846 82.8152 621.386 83.1472 620.994 83.5978Z" fill="white"/>
<path d="M643.928 86.6152L641.023 89.4296L628.329 76.3132L625.327 79.2211L622.847 76.6579L631.754 68.0277L634.235 70.5909L631.234 73.4988L643.928 86.6152Z" fill="white"/>
</g>
<defs>
<linearGradient id="paint0_linear_71_2" x1="528.522" y1="295.375" x2="901.937" y2="295.375" gradientUnits="userSpaceOnUse">
<stop stop-color="#3D9FBB"/>
<stop offset="1" stop-color="#52ABB3"/>
</linearGradient>
<clipPath id="clip0_71_2">
<rect width="1032" height="389" fill="white"/>
</clipPath>
</defs>
</svg>
